<svg xmlns="http://www.w3.org/2000/svg" width="1300" height="2000">
  <filter  id="grayscale">
  	<feColorMatrix  type="saturate" values="0"></feColorMatrix>
    <feComponentTransfer>
 <feFuncR type="linear" slope="1.5" intercept="0.3"/>
 <feFuncG type="linear" slope="1.5" intercept="0.3"/>
 <feFuncB type="linear" slope="1.5" intercept="0.3"/>
</feComponentTransfer>
  </filter>
  <g filter="url(#grayscale)"><path d="M78,2302L-250,2305L306,2325Z" fill="#9d9fbb" stroke="#9d9fbb" stroke-width="1.51"/><path d="M-263,-335L223,-257L818,-277Z" fill="#1b4989" stroke="#1b4989" stroke-width="1.51"/><path d="M-263,-335L818,-277L1191,-328Z" fill="#2a628f" stroke="#2a628f" stroke-width="1.51"/><path d="M630,2308L306,2325L1216,2337Z" fill="#b2ddcc" stroke="#b2ddcc" stroke-width="1.51"/><path d="M897,2279L630,2308L1216,2337Z" fill="#c3e7c7" stroke="#c3e7c7" stroke-width="1.51"/><path d="M1541,20L1417,220L1546,275Z" fill="#9a9eb3" stroke="#9a9eb3" stroke-width="1.51"/><path d="M1491,781L1394,963L1555,1072Z" fill="#a7d4c2" stroke="#a7d4c2" stroke-width="1.51"/><path d="M1546,275L1524,513L1563,621Z" fill="#9eb5c0" stroke="#9eb5c0" stroke-width="1.51"/><path d="M1398,1883L1574,1962L1596,1753Z" fill="#eaf7bc" stroke="#eaf7bc" stroke-width="1.51"/><path d="M1328,1700L1596,1753L1603,1558Z" fill="#def2bc" stroke="#def2bc" stroke-width="1.51"/><path d="M1336,1533L1328,1700L1603,1558Z" fill="#d4edb6" stroke="#d4edb6" stroke-width="1.51"/><path d="M1600,1389L1336,1533L1603,1558Z" fill="#cdebbe" stroke="#cdebbe" stroke-width="1.51"/><path d="M1326,2204L1216,2337L1611,2275Z" fill="#f4fbc1" stroke="#f4fbc1" stroke-width="1.51"/><path d="M1574,1962L1536,2130L1611,2275Z" fill="#f7fcc6" stroke="#f7fcc6" stroke-width="1.51"/><path d="M1596,1753L1574,1962L1611,2275Z" fill="#f4fbc2" stroke="#f4fbc2" stroke-width="1.51"/><path d="M1603,1558L1596,1753L1611,2275Z" fill="#ecf8c2" stroke="#ecf8c2" stroke-width="1.51"/><path d="M1555,1072L1323,1207L1613,1127Z" fill="#b1ddc2" stroke="#b1ddc2" stroke-width="1.51"/><path d="M1323,1207L1331,1304L1613,1127Z" fill="#b3debb" stroke="#b3debb" stroke-width="1.51"/><path d="M1563,621L1491,781L1613,1127Z" fill="#a6d0c7" stroke="#a6d0c7" stroke-width="1.51"/><path d="M1491,781L1555,1072L1613,1127Z" fill="#aad9c8" stroke="#aad9c8" stroke-width="1.51"/><path d="M1331,1304L1600,1389L1613,1127Z" fill="#bae2c1" stroke="#bae2c1" stroke-width="1.51"/><path d="M1600,1389L1603,1558L1613,1127Z" fill="#c3e7c7" stroke="#c3e7c7" stroke-width="1.51"/><path d="M1603,1558L1611,2275L1613,1127Z" fill="#e0f3c4" stroke="#e0f3c4" stroke-width="1.51"/><path d="M1191,-328L1374,-284L1617,-255Z" fill="#86848c" stroke="#86848c" stroke-width="1.51"/><path d="M1491,-61L1541,20L1617,-255Z" fill="#968da9" stroke="#968da9" stroke-width="1.51"/><path d="M1374,-284L1491,-61L1617,-255Z" fill="#8e899b" stroke="#8e899b" stroke-width="1.51"/><path d="M1563,621L1613,1127L1617,-255Z" fill="#a0b8c4" stroke="#a0b8c4" stroke-width="1.51"/><path d="M1546,275L1563,621L1617,-255Z" fill="#9ca1ba" stroke="#9ca1ba" stroke-width="1.51"/><path d="M1541,20L1546,275L1617,-255Z" fill="#9b93b4" stroke="#9b93b4" stroke-width="1.51"/><path d="M1536,2130L1405,2148L1611,2275Z" fill="#f6fcc5" stroke="#f6fcc5" stroke-width="1.51"/><path d="M1405,2148L1326,2204L1611,2275Z" fill="#f5fbc1" stroke="#f5fbc1" stroke-width="1.51"/><path d="M1331,1304L1336,1533L1600,1389Z" fill="#c2e6b8" stroke="#c2e6b8" stroke-width="1.51"/><path d="M1328,1700L1398,1883L1596,1753Z" fill="#e2f4b6" stroke="#e2f4b6" stroke-width="1.51"/><path d="M1294,395L1524,513L1546,275Z" fill="#9badb6" stroke="#9badb6" stroke-width="1.51"/><path d="M1417,220L1294,395L1546,275Z" fill="#99a5b0" stroke="#99a5b0" stroke-width="1.51"/><path d="M1375,633L1491,781L1563,621Z" fill="#9fc5c1" stroke="#9fc5c1" stroke-width="1.51"/><path d="M1405,2148L1536,2130L1574,1962Z" fill="#f3fabe" stroke="#f3fabe" stroke-width="1.51"/><path d="M1398,1883L1405,2148L1574,1962Z" fill="#eff9b6" stroke="#eff9b6" stroke-width="1.51"/><path d="M1321,50L1417,220L1541,20Z" fill="#9897ab" stroke="#9897ab" stroke-width="1.51"/><path d="M1524,513L1375,633L1563,621Z" fill="#9fbebf" stroke="#9fbebf" stroke-width="1.51"/><path d="M1374,-284L1330,-105L1491,-61Z" fill="#8e8a99" stroke="#8e8a99" stroke-width="1.51"/><path d="M1394,963L1323,1207L1555,1072Z" fill="#abdabd" stroke="#abdabd" stroke-width="1.51"/><path d="M1491,-61L1321,50L1541,20Z" fill="#9891ab" stroke="#9891ab" stroke-width="1.51"/><path d="M1338,897L1394,963L1491,781Z" fill="#a3d0bc" stroke="#a3d0bc" stroke-width="1.51"/><path d="M1294,395L1375,633L1524,513Z" fill="#9bb6b6" stroke="#9bb6b6" stroke-width="1.51"/><path d="M1294,395L1247,488L1375,633Z" fill="#94b3b6" stroke="#94b3b6" stroke-width="1.51"/><path d="M1330,-105L1321,50L1491,-61Z" fill="#948ea3" stroke="#948ea3" stroke-width="1.51"/><path d="M1375,633L1338,897L1491,781Z" fill="#a0c9bb" stroke="#a0c9bb" stroke-width="1.51"/><path d="M1178,93L1178,272L1321,50Z" fill="#8a95ab" stroke="#8a95ab" stroke-width="1.51"/><path d="M1119,749L1338,897L1375,633Z" fill="#95c5bb" stroke="#95c5bb" stroke-width="1.51"/><path d="M1204,1019L1323,1207L1394,963Z" fill="#a2d6bb" stroke="#a2d6bb" stroke-width="1.51"/><path d="M1398,1883L1186,2031L1405,2148Z" fill="#e9f6b2" stroke="#e9f6b2" stroke-width="1.51"/><path d="M1186,2031L1326,2204L1405,2148Z" fill="#eaf7b8" stroke="#eaf7b8" stroke-width="1.51"/><path d="M1321,50L1178,272L1417,220Z" fill="#919bab" stroke="#919bab" stroke-width="1.51"/><path d="M1178,272L1294,395L1417,220Z" fill="#90a2af" stroke="#90a2af" stroke-width="1.51"/><path d="M1051,2274L897,2279L1216,2337Z" fill="#d6efc5" stroke="#d6efc5" stroke-width="1.51"/><path d="M1331,1304L1170,1391L1336,1533Z" fill="#b8e2b6" stroke="#b8e2b6" stroke-width="1.51"/><path d="M1328,1700L1173,1763L1398,1883Z" fill="#d9f0b3" stroke="#d9f0b3" stroke-width="1.51"/><path d="M1134,1836L1186,2031L1398,1883Z" fill="#dcf1b3" stroke="#dcf1b3" stroke-width="1.51"/><path d="M1173,1763L1134,1836L1398,1883Z" fill="#d7efb3" stroke="#d7efb3" stroke-width="1.51"/><path d="M1155,-156L1330,-105L1374,-284Z" fill="#858696" stroke="#858696" stroke-width="1.51"/><path d="M1338,897L1204,1019L1394,963Z" fill="#9dd1bc" stroke="#9dd1bc" stroke-width="1.51"/><path d="M1204,1019L1244,1210L1323,1207Z" fill="#a3d8ba" stroke="#a3d8ba" stroke-width="1.51"/><path d="M1235,1562L1328,1700L1336,1533Z" fill="#cceab4" stroke="#cceab4" stroke-width="1.51"/><path d="M1191,-328L1155,-156L1374,-284Z" fill="#7d818f" stroke="#7d818f" stroke-width="1.51"/><path d="M1194,563L1119,749L1375,633Z" fill="#8ebdbb" stroke="#8ebdbb" stroke-width="1.51"/><path d="M1247,488L1194,563L1375,633Z" fill="#91b7b8" stroke="#91b7b8" stroke-width="1.51"/><path d="M1178,93L1321,50L1330,-105Z" fill="#8e8ea7" stroke="#8e8ea7" stroke-width="1.51"/><path d="M1155,-156L1178,93L1330,-105Z" fill="#8789a2" stroke="#8789a2" stroke-width="1.51"/><path d="M1323,1207L1244,1210L1331,1304Z" fill="#acdcb8" stroke="#acdcb8" stroke-width="1.51"/><path d="M1170,1391L1235,1562L1336,1533Z" fill="#bee4b6" stroke="#bee4b6" stroke-width="1.51"/><path d="M1119,749L1204,1019L1338,897Z" fill="#94cbbc" stroke="#94cbbc" stroke-width="1.51"/><path d="M1235,1562L1173,1763L1328,1700Z" fill="#cfecb4" stroke="#cfecb4" stroke-width="1.51"/><path d="M1244,1210L1170,1391L1331,1304Z" fill="#acddb8" stroke="#acddb8" stroke-width="1.51"/><path d="M1186,2031L1047,2101L1326,2204Z" fill="#e0f3b8" stroke="#e0f3b8" stroke-width="1.51"/><path d="M1047,2101L1051,2274L1326,2204Z" fill="#dff3bd" stroke="#dff3bd" stroke-width="1.51"/><path d="M1051,2274L1216,2337L1326,2204Z" fill="#e5f5c1" stroke="#e5f5c1" stroke-width="1.51"/><path d="M1178,272L1247,488L1294,395Z" fill="#8da8b2" stroke="#8da8b2" stroke-width="1.51"/><path d="M223,-257L485,-206L818,-277Z" fill="#296095" stroke="#296095" stroke-width="1.51"/><path d="M1070,317L1082,485L1178,272Z" fill="#7fa1b1" stroke="#7fa1b1" stroke-width="1.51"/><path d="M1119,749L1027,997L1204,1019Z" fill="#89c9bd" stroke="#89c9bd" stroke-width="1.51"/><path d="M1030,1713L1173,1763L1235,1562Z" fill="#c8e9b4" stroke="#c8e9b4" stroke-width="1.51"/><path d="M1000,1596L1030,1713L1235,1562Z" fill="#bbe4b6" stroke="#bbe4b6" stroke-width="1.51"/><path d="M1204,1019L1071,1222L1244,1210Z" fill="#9cd5ba" stroke="#9cd5ba" stroke-width="1.51"/><path d="M1071,1222L1170,1391L1244,1210Z" fill="#a3d9b9" stroke="#a3d9b9" stroke-width="1.51"/><path d="M1082,485L1194,563L1247,488Z" fill="#88b0b6" stroke="#88b0b6" stroke-width="1.51"/><path d="M1178,272L1082,485L1247,488Z" fill="#87a8b3" stroke="#87a8b3" stroke-width="1.51"/><path d="M1170,1391L1000,1596L1235,1562Z" fill="#b6e2b6" stroke="#b6e2b6" stroke-width="1.51"/><path d="M1155,-156L985,50L1178,93Z" fill="#7e88a7" stroke="#7e88a7" stroke-width="1.51"/><path d="M1077,-191L1155,-156L1191,-328Z" fill="#778092" stroke="#778092" stroke-width="1.51"/><path d="M1027,997L1071,1222L1204,1019Z" fill="#8ecfbc" stroke="#8ecfbc" stroke-width="1.51"/><path d="M1031,749L1027,997L1119,749Z" fill="#7dc0bd" stroke="#7dc0bd" stroke-width="1.51"/><path d="M942,625L1031,749L1119,749Z" fill="#75b8bd" stroke="#75b8bd" stroke-width="1.51"/><path d="M938,-49L985,50L1155,-156Z" fill="#7081a4" stroke="#7081a4" stroke-width="1.51"/><path d="M1178,93L1070,317L1178,272Z" fill="#839aad" stroke="#839aad" stroke-width="1.51"/><path d="M1134,1836L989,1875L1186,2031Z" fill="#cfecb4" stroke="#cfecb4" stroke-width="1.51"/><path d="M942,625L1119,749L1194,563Z" fill="#7db7bc" stroke="#7db7bc" stroke-width="1.51"/><path d="M1082,485L942,625L1194,563Z" fill="#7bafb9" stroke="#7bafb9" stroke-width="1.51"/><path d="M1077,-191L938,-49L1155,-156Z" fill="#70809c" stroke="#70809c" stroke-width="1.51"/><path d="M1071,1222L1010,1358L1170,1391Z" fill="#9cd7b9" stroke="#9cd7b9" stroke-width="1.51"/><path d="M1010,1358L1000,1596L1170,1391Z" fill="#a5dab8" stroke="#a5dab8" stroke-width="1.51"/><path d="M985,50L1070,317L1178,93Z" fill="#7a91ac" stroke="#7a91ac" stroke-width="1.51"/><path d="M989,1875L1047,2101L1186,2031Z" fill="#d1ecb4" stroke="#d1ecb4" stroke-width="1.51"/><path d="M818,-277L1077,-191L1191,-328Z" fill="#65798f" stroke="#65798f" stroke-width="1.51"/><path d="M1030,1713L1134,1836L1173,1763Z" fill="#c8e9b4" stroke="#c8e9b4" stroke-width="1.51"/><path d="M1030,1713L989,1875L1134,1836Z" fill="#c2e6b5" stroke="#c2e6b5" stroke-width="1.51"/><path d="M989,1875L900,2037L1047,2101Z" fill="#c4e7b5" stroke="#c4e7b5" stroke-width="1.51"/><path d="M-263,-335L63,-255L223,-257Z" fill="#1a337f" stroke="#1a337f" stroke-width="1.51"/><path d="M849,770L1027,997L1031,749Z" fill="#6ebcbe" stroke="#6ebcbe" stroke-width="1.51"/><path d="M1047,2101L897,2279L1051,2274Z" fill="#cceac1" stroke="#cceac1" stroke-width="1.51"/><path d="M985,50L751,130L1070,317Z" fill="#638bae" stroke="#638bae" stroke-width="1.51"/><path d="M751,130L766,357L1070,317Z" fill="#578fb1" stroke="#578fb1" stroke-width="1.51"/><path d="M1027,997L811,1062L1071,1222Z" fill="#79c8be" stroke="#79c8be" stroke-width="1.51"/><path d="M811,1062L812,1208L1071,1222Z" fill="#72c7be" stroke="#72c7be" stroke-width="1.51"/><path d="M1070,317L832,436L1082,485Z" fill="#6c9fb4" stroke="#6c9fb4" stroke-width="1.51"/><path d="M832,436L942,625L1082,485Z" fill="#66a5b9" stroke="#66a5b9" stroke-width="1.51"/><path d="M909,1319L1010,1358L1071,1222Z" fill="#8cd1ba" stroke="#8cd1ba" stroke-width="1.51"/><path d="M818,-277L938,-49L1077,-191Z" fill="#5d7899" stroke="#5d7899" stroke-width="1.51"/><path d="M812,1208L909,1319L1071,1222Z" fill="#7eccbc" stroke="#7eccbc" stroke-width="1.51"/><path d="M766,357L832,436L1070,317Z" fill="#5a97b4" stroke="#5a97b4" stroke-width="1.51"/><path d="M909,1319L813,1595L1000,1596Z" fill="#94d4ba" stroke="#94d4ba" stroke-width="1.51"/><path d="M909,1319L1000,1596L1010,1358Z" fill="#95d5b9" stroke="#95d5b9" stroke-width="1.51"/><path d="M900,2037L897,2279L1047,2101Z" fill="#c4e7bd" stroke="#c4e7bd" stroke-width="1.51"/><path d="M849,770L811,1062L1027,997Z" fill="#63bebf" stroke="#63bebf" stroke-width="1.51"/><path d="M1000,1596L870,1646L1030,1713Z" fill="#acdeb7" stroke="#acdeb7" stroke-width="1.51"/><path d="M870,1646L989,1875L1030,1713Z" fill="#b3e0b6" stroke="#b3e0b6" stroke-width="1.51"/><path d="M942,625L849,770L1031,749Z" fill="#65b4be" stroke="#65b4be" stroke-width="1.51"/><path d="M870,1646L779,1855L989,1875Z" fill="#abdcb8" stroke="#abdcb8" stroke-width="1.51"/><path d="M813,1595L870,1646L1000,1596Z" fill="#9ed8b8" stroke="#9ed8b8" stroke-width="1.51"/><path d="M818,-277L806,-37L938,-49Z" fill="#53779f" stroke="#53779f" stroke-width="1.51"/><path d="M779,1855L900,2037L989,1875Z" fill="#b3e0b7" stroke="#b3e0b7" stroke-width="1.51"/><path d="M938,-49L806,-37L985,50Z" fill="#5f7ea9" stroke="#5f7ea9" stroke-width="1.51"/><path d="M806,-37L751,130L985,50Z" fill="#587fac" stroke="#587fac" stroke-width="1.51"/><path d="M703,2019L897,2279L900,2037Z" fill="#b7e0bd" stroke="#b7e0bd" stroke-width="1.51"/><path d="M694,1499L813,1595L909,1319Z" fill="#86cebb" stroke="#86cebb" stroke-width="1.51"/><path d="M761,685L849,770L942,625Z" fill="#55aebf" stroke="#55aebf" stroke-width="1.51"/><path d="M832,436L761,685L942,625Z" fill="#54a6bc" stroke="#54a6bc" stroke-width="1.51"/><path d="M716,1724L779,1855L870,1646Z" fill="#a0d7b9" stroke="#a0d7b9" stroke-width="1.51"/><path d="M671,-181L806,-37L818,-277Z" fill="#46729c" stroke="#46729c" stroke-width="1.51"/><path d="M574,887L811,1062L849,770Z" fill="#4db5c2" stroke="#4db5c2" stroke-width="1.51"/><path d="M703,2019L630,2308L897,2279Z" fill="#b1ddc4" stroke="#b1ddc4" stroke-width="1.51"/><path d="M779,1855L703,2019L900,2037Z" fill="#afdcb9" stroke="#afdcb9" stroke-width="1.51"/><path d="M812,1208L682,1291L909,1319Z" fill="#70c6be" stroke="#70c6be" stroke-width="1.51"/><path d="M682,1291L694,1499L909,1319Z" fill="#75c8bd" stroke="#75c8bd" stroke-width="1.51"/><path d="M650,486L761,685L832,436Z" fill="#469ebc" stroke="#469ebc" stroke-width="1.51"/><path d="M574,887L578,1000L811,1062Z" fill="#41b5c4" stroke="#41b5c4" stroke-width="1.51"/><path d="M485,-206L671,-181L818,-277Z" fill="#356b99" stroke="#356b99" stroke-width="1.51"/><path d="M813,1595L716,1724L870,1646Z" fill="#9ad5ba" stroke="#9ad5ba" stroke-width="1.51"/><path d="M751,130L641,292L766,357Z" fill="#4488b4" stroke="#4488b4" stroke-width="1.51"/><path d="M761,685L574,887L849,770Z" fill="#46adc2" stroke="#46adc2" stroke-width="1.51"/><path d="M665,-22L751,130L806,-37Z" fill="#4b79ac" stroke="#4b79ac" stroke-width="1.51"/><path d="M811,1062L696,1206L812,1208Z" fill="#63c1c0" stroke="#63c1c0" stroke-width="1.51"/><path d="M766,357L650,486L832,436Z" fill="#4795b8" stroke="#4795b8" stroke-width="1.51"/><path d="M661,150L641,292L751,130Z" fill="#4082b2" stroke="#4082b2" stroke-width="1.51"/><path d="M671,-181L665,-22L806,-37Z" fill="#4473a5" stroke="#4473a5" stroke-width="1.51"/><path d="M696,1206L682,1291L812,1208Z" fill="#65c1c0" stroke="#65c1c0" stroke-width="1.51"/><path d="M694,1499L716,1724L813,1595Z" fill="#90d0bc" stroke="#90d0bc" stroke-width="1.51"/><path d="M578,1000L696,1206L811,1062Z" fill="#52bbc2" stroke="#52bbc2" stroke-width="1.51"/><path d="M665,-22L661,150L751,130Z" fill="#437baf" stroke="#437baf" stroke-width="1.51"/><path d="M650,486L569,572L761,685Z" fill="#369dbf" stroke="#369dbf" stroke-width="1.51"/><path d="M716,1724L602,1909L779,1855Z" fill="#9ed5bb" stroke="#9ed5bb" stroke-width="1.51"/><path d="M602,1909L703,2019L779,1855Z" fill="#a4d7bb" stroke="#a4d7bb" stroke-width="1.51"/><path d="M465,2180L630,2308L703,2019Z" fill="#a7d4c4" stroke="#a7d4c4" stroke-width="1.51"/><path d="M532,641L574,887L761,685Z" fill="#34a5c3" stroke="#34a5c3" stroke-width="1.51"/><path d="M641,292L650,486L766,357Z" fill="#3d8fb8" stroke="#3d8fb8" stroke-width="1.51"/><path d="M578,1000L529,1135L696,1206Z" fill="#4cb6c2" stroke="#4cb6c2" stroke-width="1.51"/><path d="M569,572L532,641L761,685Z" fill="#319fc1" stroke="#319fc1" stroke-width="1.51"/><path d="M441,1486L417,1708L694,1499Z" fill="#7ec0bd" stroke="#7ec0bd" stroke-width="1.51"/><path d="M682,1291L486,1301L694,1499Z" fill="#67c0c0" stroke="#67c0c0" stroke-width="1.51"/><path d="M486,1301L441,1486L694,1499Z" fill="#6dbdbe" stroke="#6dbdbe" stroke-width="1.51"/><path d="M694,1499L417,1708L716,1724Z" fill="#8acbbd" stroke="#8acbbd" stroke-width="1.51"/><path d="M417,1708L533,1869L716,1724Z" fill="#93cabc" stroke="#93cabc" stroke-width="1.51"/><path d="M533,1869L602,1909L716,1724Z" fill="#99d0bc" stroke="#99d0bc" stroke-width="1.51"/><path d="M602,1909L465,2180L703,2019Z" fill="#a4d2bd" stroke="#a4d2bd" stroke-width="1.51"/><path d="M641,292L473,397L650,486Z" fill="#338ab8" stroke="#338ab8" stroke-width="1.51"/><path d="M529,1135L682,1291L696,1206Z" fill="#58bcc2" stroke="#58bcc2" stroke-width="1.51"/><path d="M485,-206L665,-22L671,-181Z" fill="#356ba0" stroke="#356ba0" stroke-width="1.51"/><path d="M529,1135L486,1301L682,1291Z" fill="#58b7c1" stroke="#58b7c1" stroke-width="1.51"/><path d="M412,61L661,150L665,-22Z" fill="#3873ae" stroke="#3873ae" stroke-width="1.51"/><path d="M430,2158L465,2180L602,1909Z" fill="#a2cbbf" stroke="#a2cbbf" stroke-width="1.51"/><path d="M398,247L641,292L661,150Z" fill="#347db3" stroke="#347db3" stroke-width="1.51"/><path d="M485,-206L398,-73L665,-22Z" fill="#3166a3" stroke="#3166a3" stroke-width="1.51"/><path d="M398,-73L412,61L665,-22Z" fill="#3368ab" stroke="#3368ab" stroke-width="1.51"/><path d="M412,61L398,247L661,150Z" fill="#3072b0" stroke="#3072b0" stroke-width="1.51"/><path d="M532,641L413,808L574,887Z" fill="#2e9fc2" stroke="#2e9fc2" stroke-width="1.51"/><path d="M473,397L569,572L650,486Z" fill="#2f8fbb" stroke="#2f8fbb" stroke-width="1.51"/><path d="M501,1053L529,1135L578,1000Z" fill="#42afc2" stroke="#42afc2" stroke-width="1.51"/><path d="M533,1869L430,2158L602,1909Z" fill="#9fccbb" stroke="#9fccbb" stroke-width="1.51"/><path d="M398,247L473,397L641,292Z" fill="#2d7db5" stroke="#2d7db5" stroke-width="1.51"/><path d="M465,2180L306,2325L630,2308Z" fill="#a4cac9" stroke="#a4cac9" stroke-width="1.51"/><path d="M312,1978L430,2158L533,1869Z" fill="#9dc4ba" stroke="#9dc4ba" stroke-width="1.51"/><path d="M473,397L352,567L569,572Z" fill="#278abb" stroke="#278abb" stroke-width="1.51"/><path d="M413,808L501,1053L574,887Z" fill="#34a6c3" stroke="#34a6c3" stroke-width="1.51"/><path d="M574,887L501,1053L578,1000Z" fill="#3aadc4" stroke="#3aadc4" stroke-width="1.51"/><path d="M352,567L532,641L569,572Z" fill="#2791be" stroke="#2791be" stroke-width="1.51"/><path d="M312,1978L300,2062L430,2158Z" fill="#9dbdbb" stroke="#9dbdbb" stroke-width="1.51"/><path d="M350,1288L486,1301L529,1135Z" fill="#53afc0" stroke="#53afc0" stroke-width="1.51"/><path d="M352,567L413,808L532,641Z" fill="#2193c1" stroke="#2193c1" stroke-width="1.51"/><path d="M417,1708L312,1978L533,1869Z" fill="#93c1bb" stroke="#93c1bb" stroke-width="1.51"/><path d="M501,1053L350,1288L529,1135Z" fill="#4aadc1" stroke="#4aadc1" stroke-width="1.51"/><path d="M212,1073L226,1223L350,1288Z" fill="#4d9bb9" stroke="#4d9bb9" stroke-width="1.51"/><path d="M318,1537L417,1708L441,1486Z" fill="#7bb7bc" stroke="#7bb7bc" stroke-width="1.51"/><path d="M350,1288L441,1486L486,1301Z" fill="#5fb1be" stroke="#5fb1be" stroke-width="1.51"/><path d="M413,808L237,862L501,1053Z" fill="#2e9cc1" stroke="#2e9cc1" stroke-width="1.51"/><path d="M237,862L212,1073L501,1053Z" fill="#349abe" stroke="#349abe" stroke-width="1.51"/><path d="M212,1073L350,1288L501,1053Z" fill="#46a3be" stroke="#46a3be" stroke-width="1.51"/><path d="M311,1695L312,1978L417,1708Z" fill="#8eb8b9" stroke="#8eb8b9" stroke-width="1.51"/><path d="M430,2158L306,2325L465,2180Z" fill="#a1c5c6" stroke="#a1c5c6" stroke-width="1.51"/><path d="M298,408L352,567L473,397Z" fill="#227eb7" stroke="#227eb7" stroke-width="1.51"/><path d="M398,247L298,408L473,397Z" fill="#2378b5" stroke="#2378b5" stroke-width="1.51"/><path d="M239,-146L398,-73L485,-206Z" fill="#25599c" stroke="#25599c" stroke-width="1.51"/><path d="M223,-257L239,-146L485,-206Z" fill="#215194" stroke="#215194" stroke-width="1.51"/><path d="M318,1537L311,1695L417,1708Z" fill="#83b5b9" stroke="#83b5b9" stroke-width="1.51"/><path d="M291,207L398,247L412,61Z" fill="#286aae" stroke="#286aae" stroke-width="1.51"/><path d="M352,567L237,862L413,808Z" fill="#268ebd" stroke="#268ebd" stroke-width="1.51"/><path d="M350,1288L318,1537L441,1486Z" fill="#69afbc" stroke="#69afbc" stroke-width="1.51"/><path d="M398,-73L251,46L412,61Z" fill="#2a5ea8" stroke="#2a5ea8" stroke-width="1.51"/><path d="M300,2062L306,2325L430,2158Z" fill="#9fbec1" stroke="#9fbec1" stroke-width="1.51"/><path d="M311,1695L141,1785L312,1978Z" fill="#8eaeb5" stroke="#8eaeb5" stroke-width="1.51"/><path d="M109,764L237,862L352,567Z" fill="#2783b9" stroke="#2783b9" stroke-width="1.51"/><path d="M291,207L298,408L398,247Z" fill="#256db0" stroke="#256db0" stroke-width="1.51"/><path d="M251,46L291,207L412,61Z" fill="#2860aa" stroke="#2860aa" stroke-width="1.51"/><path d="M181,1305L318,1537L350,1288Z" fill="#60a3b8" stroke="#60a3b8" stroke-width="1.51"/><path d="M96,655L109,764L352,567Z" fill="#237ab6" stroke="#237ab6" stroke-width="1.51"/><path d="M239,-146L251,46L398,-73Z" fill="#2755a1" stroke="#2755a1" stroke-width="1.51"/><path d="M300,2062L153,2084L306,2325Z" fill="#9db3bc" stroke="#9db3bc" stroke-width="1.51"/><path d="M181,1305L99,1518L318,1537Z" fill="#6a9db4" stroke="#6a9db4" stroke-width="1.51"/><path d="M135,527L96,655L352,567Z" fill="#2375b3" stroke="#2375b3" stroke-width="1.51"/><path d="M298,408L135,527L352,567Z" fill="#2376b3" stroke="#2376b3" stroke-width="1.51"/><path d="M226,1223L181,1305L350,1288Z" fill="#559cb8" stroke="#559cb8" stroke-width="1.51"/><path d="M159,1049L212,1073L237,862Z" fill="#368eb9" stroke="#368eb9" stroke-width="1.51"/><path d="M239,-146L154,-55L251,46Z" fill="#264d9d" stroke="#264d9d" stroke-width="1.51"/><path d="M291,207L88,211L298,408Z" fill="#2462aa" stroke="#2462aa" stroke-width="1.51"/><path d="M153,2084L78,2302L306,2325Z" fill="#9dacbd" stroke="#9dacbd" stroke-width="1.51"/><path d="M99,1518L141,1785L311,1695Z" fill="#83a3b1" stroke="#83a3b1" stroke-width="1.51"/><path d="M141,1785L60,1857L312,1978Z" fill="#91a6b0" stroke="#91a6b0" stroke-width="1.51"/><path d="M99,1518L311,1695L318,1537Z" fill="#7ba6b5" stroke="#7ba6b5" stroke-width="1.51"/><path d="M251,46L136,86L291,207Z" fill="#2657a5" stroke="#2657a5" stroke-width="1.51"/><path d="M60,1857L153,2084L312,1978Z" fill="#97a8b0" stroke="#97a8b0" stroke-width="1.51"/><path d="M153,2084L300,2062L312,1978Z" fill="#9bb2b5" stroke="#9bb2b5" stroke-width="1.51"/><path d="M88,211L135,527L298,408Z" fill="#2364ab" stroke="#2364ab" stroke-width="1.51"/><path d="M136,86L88,211L291,207Z" fill="#2456a5" stroke="#2456a5" stroke-width="1.51"/><path d="M212,1073L89,1241L226,1223Z" fill="#4c91b5" stroke="#4c91b5" stroke-width="1.51"/><path d="M154,-55L136,86L251,46Z" fill="#264ea0" stroke="#264ea0" stroke-width="1.51"/><path d="M88,211L-57,466L135,527Z" fill="#255ba7" stroke="#255ba7" stroke-width="1.51"/><path d="M159,1049L89,1241L212,1073Z" fill="#468db5" stroke="#468db5" stroke-width="1.51"/><path d="M109,764L159,1049L237,862Z" fill="#3185b6" stroke="#3185b6" stroke-width="1.51"/><path d="M223,-257L63,-255L239,-146Z" fill="#1d438b" stroke="#1d438b" stroke-width="1.51"/><path d="M63,-255L154,-55L239,-146Z" fill="#1f4391" stroke="#1f4391" stroke-width="1.51"/><path d="M89,1241L181,1305L226,1223Z" fill="#5492b4" stroke="#5492b4" stroke-width="1.51"/><path d="M109,764L-101,940L159,1049Z" fill="#377cb2" stroke="#377cb2" stroke-width="1.51"/><path d="M99,1518L-32,1756L141,1785Z" fill="#8498ad" stroke="#8498ad" stroke-width="1.51"/><path d="M60,1857L-24,2025L153,2084Z" fill="#969eac" stroke="#969eac" stroke-width="1.51"/><path d="M-5,1472L99,1518L181,1305Z" fill="#6891af" stroke="#6891af" stroke-width="1.51"/><path d="M-98,338L-57,466L88,211Z" fill="#2550a2" stroke="#2550a2" stroke-width="1.51"/><path d="M-41,1127L89,1241L159,1049Z" fill="#4a85b1" stroke="#4a85b1" stroke-width="1.51"/><path d="M89,1241L-5,1472L181,1305Z" fill="#5c8eb0" stroke="#5c8eb0" stroke-width="1.51"/><path d="M-24,2025L78,2302L153,2084Z" fill="#9aa0b3" stroke="#9aa0b3" stroke-width="1.51"/><path d="M63,-255L-102,-186L154,-55Z" fill="#1e398b" stroke="#1e398b" stroke-width="1.51"/><path d="M-37,46L136,86L154,-55Z" fill="#26459c" stroke="#26459c" stroke-width="1.51"/><path d="M-101,940L-41,1127L159,1049Z" fill="#407db0" stroke="#407db0" stroke-width="1.51"/><path d="M-102,-186L-37,46L154,-55Z" fill="#233a93" stroke="#233a93" stroke-width="1.51"/><path d="M-24,2025L-138,2219L78,2302Z" fill="#9a97b2" stroke="#9a97b2" stroke-width="1.51"/><path d="M7,667L96,655L135,527Z" fill="#276db0" stroke="#276db0" stroke-width="1.51"/><path d="M-37,46L88,211L136,86Z" fill="#25499f" stroke="#25499f" stroke-width="1.51"/><path d="M-32,1756L60,1857L141,1785Z" fill="#8b9aac" stroke="#8b9aac" stroke-width="1.51"/><path d="M-5,1472L-32,1756L99,1518Z" fill="#7a90ac" stroke="#7a90ac" stroke-width="1.51"/><path d="M-57,466L7,667L135,527Z" fill="#2764ab" stroke="#2764ab" stroke-width="1.51"/><path d="M-102,-186L-148,-72L-37,46Z" fill="#22318e" stroke="#22318e" stroke-width="1.51"/><path d="M-121,1410L-5,1472L89,1241Z" fill="#6186ab" stroke="#6186ab" stroke-width="1.51"/><path d="M7,667L-124,744L109,764Z" fill="#2d6dae" stroke="#2d6dae" stroke-width="1.51"/><path d="M-124,744L-101,940L109,764Z" fill="#346fad" stroke="#346fad" stroke-width="1.51"/><path d="M96,655L7,667L109,764Z" fill="#2972b1" stroke="#2972b1" stroke-width="1.51"/><path d="M-45,1859L-24,2025L60,1857Z" fill="#9296aa" stroke="#9296aa" stroke-width="1.51"/><path d="M-263,-335L-102,-186L63,-255Z" fill="#1a2a7c" stroke="#1a2a7c" stroke-width="1.51"/><path d="M-138,2219L-250,2305L78,2302Z" fill="#9b91b3" stroke="#9b91b3" stroke-width="1.51"/><path d="M-37,46L-98,338L88,211Z" fill="#25489d" stroke="#25489d" stroke-width="1.51"/><path d="M-41,1127L-121,1410L89,1241Z" fill="#5681ad" stroke="#5681ad" stroke-width="1.51"/><path d="M-215,114L-98,338L-37,46Z" fill="#243e96" stroke="#243e96" stroke-width="1.51"/><path d="M-185,1492L-32,1756L-5,1472Z" fill="#7987a8" stroke="#7987a8" stroke-width="1.51"/><path d="M-32,1756L-45,1859L60,1857Z" fill="#8c94aa" stroke="#8c94aa" stroke-width="1.51"/><path d="M-286,601L-124,744L-57,466Z" fill="#275aa0" stroke="#275aa0" stroke-width="1.51"/><path d="M-190,1387L-121,1410L-41,1127Z" fill="#597ba6" stroke="#597ba6" stroke-width="1.51"/><path d="M-45,1859L-196,1922L-24,2025Z" fill="#928fa6" stroke="#928fa6" stroke-width="1.51"/><path d="M-57,466L-124,744L7,667Z" fill="#2b62aa" stroke="#2b62aa" stroke-width="1.51"/><path d="M-314,1226L-190,1387L-41,1127Z" fill="#50769e" stroke="#50769e" stroke-width="1.51"/><path d="M-185,1492L-300,1731L-32,1756Z" fill="#7b849c" stroke="#7b849c" stroke-width="1.51"/><path d="M-235,2076L-138,2219L-24,2025Z" fill="#958ea6" stroke="#958ea6" stroke-width="1.51"/><path d="M-121,1410L-185,1492L-5,1472Z" fill="#6b81a7" stroke="#6b81a7" stroke-width="1.51"/><path d="M-196,1922L-235,2076L-24,2025Z" fill="#918c9e" stroke="#918c9e" stroke-width="1.51"/><path d="M-124,744L-192,924L-101,940Z" fill="#356aa6" stroke="#356aa6" stroke-width="1.51"/><path d="M-101,940L-192,924L-41,1127Z" fill="#3d72aa" stroke="#3d72aa" stroke-width="1.51"/><path d="M-196,1922L-45,1859L-32,1756Z" fill="#8d8ca7" stroke="#8d8ca7" stroke-width="1.51"/><path d="M-300,1731L-196,1922L-32,1756Z" fill="#84879c" stroke="#84879c" stroke-width="1.51"/><path d="M-148,-72L-215,114L-37,46Z" fill="#223390" stroke="#223390" stroke-width="1.51"/><path d="M-192,924L-314,1226L-41,1127Z" fill="#4271a0" stroke="#4271a0" stroke-width="1.51"/><path d="M-215,114L-270,340L-98,338Z" fill="#20408f" stroke="#20408f" stroke-width="1.51"/><path d="M-98,338L-244,385L-57,466Z" fill="#244c9b" stroke="#244c9b" stroke-width="1.51"/><path d="M-244,385L-286,601L-57,466Z" fill="#224f96" stroke="#224f96" stroke-width="1.51"/><path d="M-286,601L-225,769L-124,744Z" fill="#265d9b" stroke="#265d9b" stroke-width="1.51"/><path d="M-225,769L-192,924L-124,744Z" fill="#2f64a0" stroke="#2f64a0" stroke-width="1.51"/><path d="M-249,-104L-148,-72L-102,-186Z" fill="#1c2c80" stroke="#1c2c80" stroke-width="1.51"/><path d="M-263,-335L-249,-104L-102,-186Z" fill="#152774" stroke="#152774" stroke-width="1.51"/><path d="M-270,340L-244,385L-98,338Z" fill="#1f4591" stroke="#1f4591" stroke-width="1.51"/><path d="M-249,-104L-215,114L-148,-72Z" fill="#1d2d85" stroke="#1d2d85" stroke-width="1.51"/><path d="M-190,1387L-185,1492L-121,1410Z" fill="#647c9e" stroke="#647c9e" stroke-width="1.51"/><path d="M-235,2076L-250,2305L-138,2219Z" fill="#918ba1" stroke="#918ba1" stroke-width="1.51"/><path d="M-190,1387L-314,1226L-185,1492Z" fill="#577796" stroke="#577796" stroke-width="1.51"/><path d="M-314,1226L-300,1731L-185,1492Z" fill="#627891" stroke="#627891" stroke-width="1.51"/><path d="M-225,769L-314,1226L-192,924Z" fill="#326999" stroke="#326999" stroke-width="1.51"/><path d="M-300,1731L-235,2076L-196,1922Z" fill="#858492" stroke="#858492" stroke-width="1.51"/><path d="M-286,601L-314,1226L-225,769Z" fill="#2a6294" stroke="#2a6294" stroke-width="1.51"/><path d="M-249,-104L-270,340L-215,114Z" fill="#1c3485" stroke="#1c3485" stroke-width="1.51"/><path d="M-270,340L-286,601L-244,385Z" fill="#1d488b" stroke="#1d488b" stroke-width="1.51"/><path d="M-300,1731L-250,2305L-235,2076Z" fill="#898691" stroke="#898691" stroke-width="1.51"/><path d="M-263,-335L-270,340L-249,-104Z" fill="#1a2b7d" stroke="#1a2b7d" stroke-width="1.51"/><path d="M-286,601L-270,340L-263,-335Z" fill="#1b3883" stroke="#1b3883" stroke-width="1.51"/></g></svg>
