<svg xmlns="http://www.w3.org/2000/svg" width="2000" height="2000"><path d="M68,2302L-260,2305L296,2325Z" fill="#83828a" stroke="#83828a" stroke-width="1.51"/><path d="M-273,-335L213,-257L808,-277Z" fill="#e6f5c2" stroke="#e6f5c2" stroke-width="1.51"/><path d="M-273,-335L808,-277L1181,-328Z" fill="#cae9c7" stroke="#cae9c7" stroke-width="1.51"/><path d="M620,2308L296,2325L1206,2337Z" fill="#4a6f8c" stroke="#4a6f8c" stroke-width="1.51"/><path d="M1364,-284L1607,-255L1874,-271Z" fill="#9eaec0" stroke="#9eaec0" stroke-width="1.51"/><path d="M1181,-328L1364,-284L1874,-271Z" fill="#a1bac5" stroke="#a1bac5" stroke-width="1.51"/><path d="M2134,1311L2180,1406L2207,1120Z" fill="#275e9c" stroke="#275e9c" stroke-width="1.51"/><path d="M2076,2260L1735,2337L2259,2246Z" fill="#192a7b" stroke="#192a7b" stroke-width="1.51"/><path d="M2206,2137L2259,2246L2263,1877Z" fill="#182978" stroke="#182978" stroke-width="1.51"/><path d="M2063,1616L2223,1745L2281,1479Z" fill="#1f4790" stroke="#1f4790" stroke-width="1.51"/><path d="M2263,1002L2207,1120L2281,1479Z" fill="#286095" stroke="#286095" stroke-width="1.51"/><path d="M2207,1120L2180,1406L2281,1479Z" fill="#215996" stroke="#215996" stroke-width="1.51"/><path d="M2223,1745L2263,1877L2281,1479Z" fill="#1b3e87" stroke="#1b3e87" stroke-width="1.51"/><path d="M2263,1877L2259,2246L2281,1479Z" fill="#1b3481" stroke="#1b3481" stroke-width="1.51"/><path d="M2258,478L2223,679L2283,808Z" fill="#527492" stroke="#527492" stroke-width="1.51"/><path d="M2263,1002L2281,1479L2283,808Z" fill="#2d6393" stroke="#2d6393" stroke-width="1.51"/><path d="M1874,-271L2000,-187L2296,-225Z" fill="#9890ae" stroke="#9890ae" stroke-width="1.51"/><path d="M2269,155L2059,248L2330,331Z" fill="#7c8393" stroke="#7c8393" stroke-width="1.51"/><path d="M2258,478L2283,808L2330,331Z" fill="#5d768e" stroke="#5d768e" stroke-width="1.51"/><path d="M2283,808L2281,1479L2330,331Z" fill="#3e6b90" stroke="#3e6b90" stroke-width="1.51"/><path d="M2296,-225L2115,-48L2336,-64Z" fill="#8a8795" stroke="#8a8795" stroke-width="1.51"/><path d="M2115,-48L2269,155L2336,-64Z" fill="#888590" stroke="#888590" stroke-width="1.51"/><path d="M2269,155L2330,331L2336,-64Z" fill="#7d808a" stroke="#7d808a" stroke-width="1.51"/><path d="M2120,476L2258,478L2330,331Z" fill="#6c7c92" stroke="#6c7c92" stroke-width="1.51"/><path d="M2059,248L2120,476L2330,331Z" fill="#788298" stroke="#788298" stroke-width="1.51"/><path d="M2106,1180L2134,1311L2207,1120Z" fill="#2d639e" stroke="#2d639e" stroke-width="1.51"/><path d="M2075,572L2223,679L2258,478Z" fill="#5f7998" stroke="#5f7998" stroke-width="1.51"/><path d="M2120,476L2075,572L2258,478Z" fill="#687d9b" stroke="#687d9b" stroke-width="1.51"/><path d="M2122,2143L2206,2137L2263,1877Z" fill="#1c2c80" stroke="#1c2c80" stroke-width="1.51"/><path d="M2115,-48L2052,44L2269,155Z" fill="#8c899a" stroke="#8c899a" stroke-width="1.51"/><path d="M2076,925L2263,1002L2283,808Z" fill="#3e6e99" stroke="#3e6e99" stroke-width="1.51"/><path d="M2000,-187L2115,-48L2296,-225Z" fill="#928ca2" stroke="#928ca2" stroke-width="1.51"/><path d="M2053,1827L2122,2143L2263,1877Z" fill="#20338a" stroke="#20338a" stroke-width="1.51"/><path d="M2180,1406L2063,1616L2281,1479Z" fill="#225095" stroke="#225095" stroke-width="1.51"/><path d="M2223,679L2027,800L2283,808Z" fill="#4d749a" stroke="#4d749a" stroke-width="1.51"/><path d="M2027,800L2076,925L2283,808Z" fill="#4874a0" stroke="#4874a0" stroke-width="1.51"/><path d="M2063,1616L2074,1710L2223,1745Z" fill="#214493" stroke="#214493" stroke-width="1.51"/><path d="M2223,1745L2053,1827L2263,1877Z" fill="#1f3a8b" stroke="#1f3a8b" stroke-width="1.51"/><path d="M2052,44L2059,248L2269,155Z" fill="#87889b" stroke="#87889b" stroke-width="1.51"/><path d="M2076,925L2207,1120L2263,1002Z" fill="#366b9c" stroke="#366b9c" stroke-width="1.51"/><path d="M2206,2137L2122,2143L2259,2246Z" fill="#162874" stroke="#162874" stroke-width="1.51"/><path d="M2122,2143L2076,2260L2259,2246Z" fill="#172874" stroke="#172874" stroke-width="1.51"/><path d="M2053,1827L1906,1961L2122,2143Z" fill="#253693" stroke="#253693" stroke-width="1.51"/><path d="M2076,925L2106,1180L2207,1120Z" fill="#356ba1" stroke="#356ba1" stroke-width="1.51"/><path d="M2074,1710L2053,1827L2223,1745Z" fill="#214092" stroke="#214092" stroke-width="1.51"/><path d="M2075,572L2027,800L2223,679Z" fill="#5779a0" stroke="#5779a0" stroke-width="1.51"/><path d="M2076,925L1939,1057L2106,1180Z" fill="#3b70a9" stroke="#3b70a9" stroke-width="1.51"/><path d="M2059,248L1962,384L2120,476Z" fill="#7d87a4" stroke="#7d87a4" stroke-width="1.51"/><path d="M2134,1311L1909,1578L2180,1406Z" fill="#2859a1" stroke="#2859a1" stroke-width="1.51"/><path d="M1909,1578L2063,1616L2180,1406Z" fill="#27529f" stroke="#27529f" stroke-width="1.51"/><path d="M1848,2215L1735,2337L2076,2260Z" fill="#1b3380" stroke="#1b3380" stroke-width="1.51"/><path d="M1939,1057L1958,1135L2106,1180Z" fill="#386eac" stroke="#386eac" stroke-width="1.51"/><path d="M1843,1287L1909,1578L2134,1311Z" fill="#2b61aa" stroke="#2b61aa" stroke-width="1.51"/><path d="M2106,1180L1958,1135L2134,1311Z" fill="#3166a6" stroke="#3166a6" stroke-width="1.51"/><path d="M1958,1135L1843,1287L2134,1311Z" fill="#3169ac" stroke="#3169ac" stroke-width="1.51"/><path d="M2000,-187L1946,-50L2115,-48Z" fill="#9890aa" stroke="#9890aa" stroke-width="1.51"/><path d="M1906,1961L1834,2096L2122,2143Z" fill="#233590" stroke="#233590" stroke-width="1.51"/><path d="M1848,2215L2076,2260L2122,2143Z" fill="#1d2d82" stroke="#1d2d82" stroke-width="1.51"/><path d="M1834,2096L1848,2215L2122,2143Z" fill="#20348a" stroke="#20348a" stroke-width="1.51"/><path d="M1962,384L2075,572L2120,476Z" fill="#7282a4" stroke="#7282a4" stroke-width="1.51"/><path d="M2052,44L1885,125L2059,248Z" fill="#8e8ea7" stroke="#8e8ea7" stroke-width="1.51"/><path d="M1946,-50L2052,44L2115,-48Z" fill="#958fa4" stroke="#958fa4" stroke-width="1.51"/><path d="M1835,654L2027,800L2075,572Z" fill="#5c7faa" stroke="#5c7faa" stroke-width="1.51"/><path d="M1885,125L1903,253L2059,248Z" fill="#8a90a8" stroke="#8a90a8" stroke-width="1.51"/><path d="M1850,1705L2053,1827L2074,1710Z" fill="#26469d" stroke="#26469d" stroke-width="1.51"/><path d="M2063,1616L1909,1578L2074,1710Z" fill="#274c9f" stroke="#274c9f" stroke-width="1.51"/><path d="M1909,1578L1850,1705L2074,1710Z" fill="#264fa1" stroke="#264fa1" stroke-width="1.51"/><path d="M1962,384L1835,654L2075,572Z" fill="#6c86aa" stroke="#6c86aa" stroke-width="1.51"/><path d="M2027,800L1858,809L2076,925Z" fill="#4e7aac" stroke="#4e7aac" stroke-width="1.51"/><path d="M1858,809L1939,1057L2076,925Z" fill="#4579ad" stroke="#4579ad" stroke-width="1.51"/><path d="M1903,253L1962,384L2059,248Z" fill="#858da8" stroke="#858da8" stroke-width="1.51"/><path d="M1835,654L1858,809L2027,800Z" fill="#5582ad" stroke="#5582ad" stroke-width="1.51"/><path d="M1850,1705L1906,1961L2053,1827Z" fill="#26459c" stroke="#26459c" stroke-width="1.51"/><path d="M1946,-50L1885,125L2052,44Z" fill="#9493a7" stroke="#9493a7" stroke-width="1.51"/><path d="M1742,572L1835,654L1962,384Z" fill="#6c8dad" stroke="#6c8dad" stroke-width="1.51"/><path d="M1843,1287L1781,1575L1909,1578Z" fill="#2862aa" stroke="#2862aa" stroke-width="1.51"/><path d="M1747,403L1742,572L1962,384Z" fill="#7692ad" stroke="#7692ad" stroke-width="1.51"/><path d="M1874,-271L1946,-50L2000,-187Z" fill="#9a96b1" stroke="#9a96b1" stroke-width="1.51"/><path d="M1607,-255L1687,-225L1874,-271Z" fill="#9da6bb" stroke="#9da6bb" stroke-width="1.51"/><path d="M1850,1705L1741,1768L1906,1961Z" fill="#264ca0" stroke="#264ca0" stroke-width="1.51"/><path d="M1858,809L1694,1041L1939,1057Z" fill="#3f80b1" stroke="#3f80b1" stroke-width="1.51"/><path d="M1874,-271L1695,-84L1946,-50Z" fill="#9a9db2" stroke="#9a9db2" stroke-width="1.51"/><path d="M1787,1127L1843,1287L1958,1135Z" fill="#3374b0" stroke="#3374b0" stroke-width="1.51"/><path d="M1903,253L1747,403L1962,384Z" fill="#8192aa" stroke="#8192aa" stroke-width="1.51"/><path d="M1939,1057L1787,1127L1958,1135Z" fill="#3775af" stroke="#3775af" stroke-width="1.51"/><path d="M1601,2275L1206,2337L1735,2337Z" fill="#1b4987" stroke="#1b4987" stroke-width="1.51"/><path d="M1694,1041L1787,1127L1939,1057Z" fill="#377db2" stroke="#377db2" stroke-width="1.51"/><path d="M1695,-84L1885,125L1946,-50Z" fill="#979bab" stroke="#979bab" stroke-width="1.51"/><path d="M1643,1312L1781,1575L1843,1287Z" fill="#266eb0" stroke="#266eb0" stroke-width="1.51"/><path d="M1687,-225L1695,-84L1874,-271Z" fill="#9ba4b7" stroke="#9ba4b7" stroke-width="1.51"/><path d="M1695,-84L1718,152L1885,125Z" fill="#949fad" stroke="#949fad" stroke-width="1.51"/><path d="M1718,152L1727,255L1885,125Z" fill="#8d9cad" stroke="#8d9cad" stroke-width="1.51"/><path d="M1885,125L1727,255L1903,253Z" fill="#8b97ab" stroke="#8b97ab" stroke-width="1.51"/><path d="M1727,255L1747,403L1903,253Z" fill="#8599ad" stroke="#8599ad" stroke-width="1.51"/><path d="M1767,2008L1834,2096L1906,1961Z" fill="#263f98" stroke="#263f98" stroke-width="1.51"/><path d="M1741,1768L1767,2008L1906,1961Z" fill="#26489d" stroke="#26489d" stroke-width="1.51"/><path d="M1781,1575L1850,1705L1909,1578Z" fill="#2657a5" stroke="#2657a5" stroke-width="1.51"/><path d="M887,2279L620,2308L1206,2337Z" fill="#3a6a90" stroke="#3a6a90" stroke-width="1.51"/><path d="M1741,1768L1656,1880L1767,2008Z" fill="#264ea1" stroke="#264ea1" stroke-width="1.51"/><path d="M1643,1312L1590,1389L1781,1575Z" fill="#2371b1" stroke="#2371b1" stroke-width="1.51"/><path d="M1835,654L1710,740L1858,809Z" fill="#5689b0" stroke="#5689b0" stroke-width="1.51"/><path d="M1710,740L1694,1041L1858,809Z" fill="#4a88b2" stroke="#4a88b2" stroke-width="1.51"/><path d="M1787,1127L1643,1312L1843,1287Z" fill="#2d77b2" stroke="#2d77b2" stroke-width="1.51"/><path d="M1834,2096L1601,2275L1848,2215Z" fill="#1e3d8b" stroke="#1e3d8b" stroke-width="1.51"/><path d="M1781,1575L1741,1768L1850,1705Z" fill="#2456a4" stroke="#2456a4" stroke-width="1.51"/><path d="M1601,2275L1735,2337L1848,2215Z" fill="#1a3c84" stroke="#1a3c84" stroke-width="1.51"/><path d="M1526,2130L1601,2275L1767,2008Z" fill="#214794" stroke="#214794" stroke-width="1.51"/><path d="M1767,2008L1601,2275L1834,2096Z" fill="#214192" stroke="#214192" stroke-width="1.51"/><path d="M1742,572L1710,740L1835,654Z" fill="#5d8eb0" stroke="#5d8eb0" stroke-width="1.51"/><path d="M1481,781L1694,1041L1710,740Z" fill="#4991b6" stroke="#4991b6" stroke-width="1.51"/><path d="M1593,1558L1586,1753L1741,1768Z" fill="#235fa9" stroke="#235fa9" stroke-width="1.51"/><path d="M1590,1389L1593,1558L1781,1575Z" fill="#236caf" stroke="#236caf" stroke-width="1.51"/><path d="M1593,1558L1741,1768L1781,1575Z" fill="#235fa9" stroke="#235fa9" stroke-width="1.51"/><path d="M1694,1041L1603,1127L1787,1127Z" fill="#3383b5" stroke="#3383b5" stroke-width="1.51"/><path d="M1603,1127L1643,1312L1787,1127Z" fill="#2d7fb5" stroke="#2d7fb5" stroke-width="1.51"/><path d="M1695,-84L1531,20L1718,152Z" fill="#96a8b0" stroke="#96a8b0" stroke-width="1.51"/><path d="M1564,1962L1526,2130L1767,2008Z" fill="#264d9e" stroke="#264d9e" stroke-width="1.51"/><path d="M1553,621L1710,740L1742,572Z" fill="#5d95b2" stroke="#5d95b2" stroke-width="1.51"/><path d="M1514,513L1742,572L1747,403Z" fill="#719ab2" stroke="#719ab2" stroke-width="1.51"/><path d="M1656,1880L1564,1962L1767,2008Z" fill="#264ea1" stroke="#264ea1" stroke-width="1.51"/><path d="M1481,781L1545,1072L1694,1041Z" fill="#3b92b9" stroke="#3b92b9" stroke-width="1.51"/><path d="M1514,513L1553,621L1742,572Z" fill="#689db4" stroke="#689db4" stroke-width="1.51"/><path d="M1727,255L1536,275L1747,403Z" fill="#85a1b0" stroke="#85a1b0" stroke-width="1.51"/><path d="M1536,275L1514,513L1747,403Z" fill="#7ca3b3" stroke="#7ca3b3" stroke-width="1.51"/><path d="M1586,1753L1656,1880L1741,1768Z" fill="#2457a5" stroke="#2457a5" stroke-width="1.51"/><path d="M1718,152L1536,275L1727,255Z" fill="#8aa3b0" stroke="#8aa3b0" stroke-width="1.51"/><path d="M1687,-225L1607,-255L1695,-84Z" fill="#9caaba" stroke="#9caaba" stroke-width="1.51"/><path d="M1531,20L1536,275L1718,152Z" fill="#90aab2" stroke="#90aab2" stroke-width="1.51"/><path d="M1553,621L1481,781L1710,740Z" fill="#5699b6" stroke="#5699b6" stroke-width="1.51"/><path d="M1607,-255L1481,-61L1695,-84Z" fill="#9cafb9" stroke="#9cafb9" stroke-width="1.51"/><path d="M1481,-61L1531,20L1695,-84Z" fill="#9bb0b4" stroke="#9bb0b4" stroke-width="1.51"/><path d="M1545,1072L1603,1127L1694,1041Z" fill="#3389b8" stroke="#3389b8" stroke-width="1.51"/><path d="M1481,781L1384,963L1545,1072Z" fill="#3e9bbd" stroke="#3e9bbd" stroke-width="1.51"/><path d="M1586,1753L1564,1962L1656,1880Z" fill="#2658a5" stroke="#2658a5" stroke-width="1.51"/><path d="M1313,1207L1321,1304L1603,1127Z" fill="#2891bf" stroke="#2891bf" stroke-width="1.51"/><path d="M1603,1127L1321,1304L1643,1312Z" fill="#2888ba" stroke="#2888ba" stroke-width="1.51"/><path d="M1321,1304L1590,1389L1643,1312Z" fill="#2183ba" stroke="#2183ba" stroke-width="1.51"/><path d="M1531,20L1407,220L1536,275Z" fill="#90b2b6" stroke="#90b2b6" stroke-width="1.51"/><path d="M1388,1883L1564,1962L1586,1753Z" fill="#275ea9" stroke="#275ea9" stroke-width="1.51"/><path d="M1318,1700L1586,1753L1593,1558Z" fill="#236baf" stroke="#236baf" stroke-width="1.51"/><path d="M1326,1533L1318,1700L1593,1558Z" fill="#2377b5" stroke="#2377b5" stroke-width="1.51"/><path d="M1590,1389L1326,1533L1593,1558Z" fill="#2378b4" stroke="#2378b4" stroke-width="1.51"/><path d="M1316,2204L1206,2337L1601,2275Z" fill="#1e5590" stroke="#1e5590" stroke-width="1.51"/><path d="M1545,1072L1313,1207L1603,1127Z" fill="#2f90bc" stroke="#2f90bc" stroke-width="1.51"/><path d="M1364,-284L1481,-61L1607,-255Z" fill="#9fb9c0" stroke="#9fb9c0" stroke-width="1.51"/><path d="M1526,2130L1395,2148L1601,2275Z" fill="#214f94" stroke="#214f94" stroke-width="1.51"/><path d="M1395,2148L1316,2204L1601,2275Z" fill="#215394" stroke="#215394" stroke-width="1.51"/><path d="M1321,1304L1326,1533L1590,1389Z" fill="#2185bb" stroke="#2185bb" stroke-width="1.51"/><path d="M1318,1700L1388,1883L1586,1753Z" fill="#266aae" stroke="#266aae" stroke-width="1.51"/><path d="M1284,395L1514,513L1536,275Z" fill="#7eb0b8" stroke="#7eb0b8" stroke-width="1.51"/><path d="M1407,220L1284,395L1536,275Z" fill="#88b6b9" stroke="#88b6b9" stroke-width="1.51"/><path d="M1365,633L1481,781L1553,621Z" fill="#5aa3ba" stroke="#5aa3ba" stroke-width="1.51"/><path d="M1395,2148L1526,2130L1564,1962Z" fill="#26549e" stroke="#26549e" stroke-width="1.51"/><path d="M1388,1883L1395,2148L1564,1962Z" fill="#2a5ba7" stroke="#2a5ba7" stroke-width="1.51"/><path d="M1311,50L1407,220L1531,20Z" fill="#95bab8" stroke="#95bab8" stroke-width="1.51"/><path d="M1514,513L1365,633L1553,621Z" fill="#65a6b9" stroke="#65a6b9" stroke-width="1.51"/><path d="M1364,-284L1320,-105L1481,-61Z" fill="#9fc0c0" stroke="#9fc0c0" stroke-width="1.51"/><path d="M1384,963L1313,1207L1545,1072Z" fill="#3099bf" stroke="#3099bf" stroke-width="1.51"/><path d="M1481,-61L1311,50L1531,20Z" fill="#9bbab7" stroke="#9bbab7" stroke-width="1.51"/><path d="M1328,897L1384,963L1481,781Z" fill="#44a3bf" stroke="#44a3bf" stroke-width="1.51"/><path d="M1284,395L1365,633L1514,513Z" fill="#70b0bb" stroke="#70b0bb" stroke-width="1.51"/><path d="M1284,395L1237,488L1365,633Z" fill="#72b7bd" stroke="#72b7bd" stroke-width="1.51"/><path d="M1320,-105L1311,50L1481,-61Z" fill="#9dc1bb" stroke="#9dc1bb" stroke-width="1.51"/><path d="M1365,633L1328,897L1481,781Z" fill="#51a7bd" stroke="#51a7bd" stroke-width="1.51"/><path d="M1168,93L1168,272L1311,50Z" fill="#96c6bb" stroke="#96c6bb" stroke-width="1.51"/><path d="M1109,749L1328,897L1365,633Z" fill="#53afc0" stroke="#53afc0" stroke-width="1.51"/><path d="M1194,1019L1313,1207L1384,963Z" fill="#31a2c2" stroke="#31a2c2" stroke-width="1.51"/><path d="M1388,1883L1176,2031L1395,2148Z" fill="#2d63a9" stroke="#2d63a9" stroke-width="1.51"/><path d="M1176,2031L1316,2204L1395,2148Z" fill="#295fa0" stroke="#295fa0" stroke-width="1.51"/><path d="M1311,50L1168,272L1407,220Z" fill="#91c1bb" stroke="#91c1bb" stroke-width="1.51"/><path d="M1168,272L1284,395L1407,220Z" fill="#8abfbc" stroke="#8abfbc" stroke-width="1.51"/><path d="M1041,2274L887,2279L1206,2337Z" fill="#2e6592" stroke="#2e6592" stroke-width="1.51"/><path d="M1321,1304L1160,1391L1326,1533Z" fill="#248fbe" stroke="#248fbe" stroke-width="1.51"/><path d="M1318,1700L1163,1763L1388,1883Z" fill="#2a73b2" stroke="#2a73b2" stroke-width="1.51"/><path d="M1124,1836L1176,2031L1388,1883Z" fill="#316eae" stroke="#316eae" stroke-width="1.51"/><path d="M1163,1763L1124,1836L1388,1883Z" fill="#3073b0" stroke="#3073b0" stroke-width="1.51"/><path d="M1145,-156L1320,-105L1364,-284Z" fill="#a2c9c4" stroke="#a2c9c4" stroke-width="1.51"/><path d="M1328,897L1194,1019L1384,963Z" fill="#3ba7c2" stroke="#3ba7c2" stroke-width="1.51"/><path d="M1194,1019L1234,1210L1313,1207Z" fill="#30a0c2" stroke="#30a0c2" stroke-width="1.51"/><path d="M1225,1562L1318,1700L1326,1533Z" fill="#267fb7" stroke="#267fb7" stroke-width="1.51"/><path d="M1181,-328L1145,-156L1364,-284Z" fill="#a5ccc8" stroke="#a5ccc8" stroke-width="1.51"/><path d="M1184,563L1109,749L1365,633Z" fill="#60b6bf" stroke="#60b6bf" stroke-width="1.51"/><path d="M1237,488L1184,563L1365,633Z" fill="#6cb6be" stroke="#6cb6be" stroke-width="1.51"/><path d="M1168,93L1311,50L1320,-105Z" fill="#9dc7bb" stroke="#9dc7bb" stroke-width="1.51"/><path d="M1145,-156L1168,93L1320,-105Z" fill="#a1cbbd" stroke="#a1cbbd" stroke-width="1.51"/><path d="M1313,1207L1234,1210L1321,1304Z" fill="#2898c1" stroke="#2898c1" stroke-width="1.51"/><path d="M1160,1391L1225,1562L1326,1533Z" fill="#288abb" stroke="#288abb" stroke-width="1.51"/><path d="M1109,749L1194,1019L1328,897Z" fill="#47aec2" stroke="#47aec2" stroke-width="1.51"/><path d="M1225,1562L1163,1763L1318,1700Z" fill="#2a7db5" stroke="#2a7db5" stroke-width="1.51"/><path d="M1234,1210L1160,1391L1321,1304Z" fill="#2798c1" stroke="#2798c1" stroke-width="1.51"/><path d="M1176,2031L1037,2101L1316,2204Z" fill="#3166a2" stroke="#3166a2" stroke-width="1.51"/><path d="M1037,2101L1041,2274L1316,2204Z" fill="#2f659b" stroke="#2f659b" stroke-width="1.51"/><path d="M1041,2274L1206,2337L1316,2204Z" fill="#285f93" stroke="#285f93" stroke-width="1.51"/><path d="M1168,272L1237,488L1284,395Z" fill="#82c0bc" stroke="#82c0bc" stroke-width="1.51"/><path d="M213,-257L475,-206L808,-277Z" fill="#d0ecc2" stroke="#d0ecc2" stroke-width="1.51"/><path d="M1060,317L1072,485L1168,272Z" fill="#89c8bd" stroke="#89c8bd" stroke-width="1.51"/><path d="M1109,749L1017,997L1194,1019Z" fill="#47b2c3" stroke="#47b2c3" stroke-width="1.51"/><path d="M1020,1713L1163,1763L1225,1562Z" fill="#3181b5" stroke="#3181b5" stroke-width="1.51"/><path d="M990,1596L1020,1713L1225,1562Z" fill="#3389b8" stroke="#3389b8" stroke-width="1.51"/><path d="M1194,1019L1061,1222L1234,1210Z" fill="#34a4c2" stroke="#34a4c2" stroke-width="1.51"/><path d="M1061,1222L1160,1391L1234,1210Z" fill="#2e9ec2" stroke="#2e9ec2" stroke-width="1.51"/><path d="M1072,485L1184,563L1237,488Z" fill="#75bebe" stroke="#75bebe" stroke-width="1.51"/><path d="M1168,272L1072,485L1237,488Z" fill="#81c2bd" stroke="#81c2bd" stroke-width="1.51"/><path d="M1160,1391L990,1596L1225,1562Z" fill="#2f8fbb" stroke="#2f8fbb" stroke-width="1.51"/><path d="M1145,-156L975,50L1168,93Z" fill="#a2d1bb" stroke="#a2d1bb" stroke-width="1.51"/><path d="M1067,-191L1145,-156L1181,-328Z" fill="#a6d1c7" stroke="#a6d1c7" stroke-width="1.51"/><path d="M1017,997L1061,1222L1194,1019Z" fill="#3bacc3" stroke="#3bacc3" stroke-width="1.51"/><path d="M1021,749L1017,997L1109,749Z" fill="#53b9c2" stroke="#53b9c2" stroke-width="1.51"/><path d="M932,625L1021,749L1109,749Z" fill="#5fbfc0" stroke="#5fbfc0" stroke-width="1.51"/><path d="M928,-49L975,50L1145,-156Z" fill="#a6d6be" stroke="#a6d6be" stroke-width="1.51"/><path d="M1168,93L1060,317L1168,272Z" fill="#93c9bc" stroke="#93c9bc" stroke-width="1.51"/><path d="M1124,1836L979,1875L1176,2031Z" fill="#3975af" stroke="#3975af" stroke-width="1.51"/><path d="M932,625L1109,749L1184,563Z" fill="#65bebf" stroke="#65bebf" stroke-width="1.51"/><path d="M1072,485L932,625L1184,563Z" fill="#71c2be" stroke="#71c2be" stroke-width="1.51"/><path d="M1067,-191L928,-49L1145,-156Z" fill="#a7d5c2" stroke="#a7d5c2" stroke-width="1.51"/><path d="M1061,1222L1000,1358L1160,1391Z" fill="#2fa0c2" stroke="#2fa0c2" stroke-width="1.51"/><path d="M1000,1358L990,1596L1160,1391Z" fill="#3298be" stroke="#3298be" stroke-width="1.51"/><path d="M975,50L1060,317L1168,93Z" fill="#99cfbc" stroke="#99cfbc" stroke-width="1.51"/><path d="M979,1875L1037,2101L1176,2031Z" fill="#3b71ac" stroke="#3b71ac" stroke-width="1.51"/><path d="M808,-277L1067,-191L1181,-328Z" fill="#abd8ca" stroke="#abd8ca" stroke-width="1.51"/><path d="M1020,1713L1124,1836L1163,1763Z" fill="#357eb3" stroke="#357eb3" stroke-width="1.51"/><path d="M1020,1713L979,1875L1124,1836Z" fill="#397eb2" stroke="#397eb2" stroke-width="1.51"/><path d="M979,1875L890,2037L1037,2101Z" fill="#4275ac" stroke="#4275ac" stroke-width="1.51"/><path d="M-273,-335L53,-255L213,-257Z" fill="#f4fbc1" stroke="#f4fbc1" stroke-width="1.51"/><path d="M839,770L1017,997L1021,749Z" fill="#58bdc2" stroke="#58bdc2" stroke-width="1.51"/><path d="M1037,2101L887,2279L1041,2274Z" fill="#366b99" stroke="#366b99" stroke-width="1.51"/><path d="M975,50L741,130L1060,317Z" fill="#9fd5bb" stroke="#9fd5bb" stroke-width="1.51"/><path d="M741,130L756,357L1060,317Z" fill="#9dd6ba" stroke="#9dd6ba" stroke-width="1.51"/><path d="M1017,997L801,1062L1061,1222Z" fill="#43b2c3" stroke="#43b2c3" stroke-width="1.51"/><path d="M801,1062L802,1208L1061,1222Z" fill="#49b1c2" stroke="#49b1c2" stroke-width="1.51"/><path d="M1060,317L822,436L1072,485Z" fill="#87ccbd" stroke="#87ccbd" stroke-width="1.51"/><path d="M822,436L932,625L1072,485Z" fill="#7dc9be" stroke="#7dc9be" stroke-width="1.51"/><path d="M899,1319L1000,1358L1061,1222Z" fill="#36a6c2" stroke="#36a6c2" stroke-width="1.51"/><path d="M808,-277L928,-49L1067,-191Z" fill="#addac4" stroke="#addac4" stroke-width="1.51"/><path d="M802,1208L899,1319L1061,1222Z" fill="#42aac2" stroke="#42aac2" stroke-width="1.51"/><path d="M756,357L822,436L1060,317Z" fill="#92d1bb" stroke="#92d1bb" stroke-width="1.51"/><path d="M899,1319L803,1595L990,1596Z" fill="#439abb" stroke="#439abb" stroke-width="1.51"/><path d="M899,1319L990,1596L1000,1358Z" fill="#3a9ebf" stroke="#3a9ebf" stroke-width="1.51"/><path d="M890,2037L887,2279L1037,2101Z" fill="#3f70a0" stroke="#3f70a0" stroke-width="1.51"/><path d="M839,770L801,1062L1017,997Z" fill="#55bcc2" stroke="#55bcc2" stroke-width="1.51"/><path d="M990,1596L860,1646L1020,1713Z" fill="#3d8cb7" stroke="#3d8cb7" stroke-width="1.51"/><path d="M860,1646L979,1875L1020,1713Z" fill="#3f86b4" stroke="#3f86b4" stroke-width="1.51"/><path d="M932,625L839,770L1021,749Z" fill="#66c2bf" stroke="#66c2bf" stroke-width="1.51"/><path d="M860,1646L769,1855L979,1875Z" fill="#4986b2" stroke="#4986b2" stroke-width="1.51"/><path d="M803,1595L860,1646L990,1596Z" fill="#4591b7" stroke="#4591b7" stroke-width="1.51"/><path d="M808,-277L796,-37L928,-49Z" fill="#b2ddc0" stroke="#b2ddc0" stroke-width="1.51"/><path d="M769,1855L890,2037L979,1875Z" fill="#4a7dae" stroke="#4a7dae" stroke-width="1.51"/><path d="M928,-49L796,-37L975,50Z" fill="#acdaba" stroke="#acdaba" stroke-width="1.51"/><path d="M796,-37L741,130L975,50Z" fill="#abdbba" stroke="#abdbba" stroke-width="1.51"/><path d="M693,2019L887,2279L890,2037Z" fill="#4b75a1" stroke="#4b75a1" stroke-width="1.51"/><path d="M684,1499L803,1595L899,1319Z" fill="#4fa0bb" stroke="#4fa0bb" stroke-width="1.51"/><path d="M751,685L839,770L932,625Z" fill="#6fc6be" stroke="#6fc6be" stroke-width="1.51"/><path d="M822,436L751,685L932,625Z" fill="#7dcabd" stroke="#7dcabd" stroke-width="1.51"/><path d="M706,1724L769,1855L860,1646Z" fill="#518cb2" stroke="#518cb2" stroke-width="1.51"/><path d="M661,-181L796,-37L808,-277Z" fill="#b8e1c1" stroke="#b8e1c1" stroke-width="1.51"/><path d="M564,887L801,1062L839,770Z" fill="#66c2c0" stroke="#66c2c0" stroke-width="1.51"/><path d="M693,2019L620,2308L887,2279Z" fill="#4e7398" stroke="#4e7398" stroke-width="1.51"/><path d="M769,1855L693,2019L890,2037Z" fill="#537dac" stroke="#537dac" stroke-width="1.51"/><path d="M802,1208L672,1291L899,1319Z" fill="#50aec0" stroke="#50aec0" stroke-width="1.51"/><path d="M672,1291L684,1499L899,1319Z" fill="#52a9be" stroke="#52a9be" stroke-width="1.51"/><path d="M640,486L751,685L822,436Z" fill="#89cfbb" stroke="#89cfbb" stroke-width="1.51"/><path d="M564,887L568,1000L801,1062Z" fill="#68c2c0" stroke="#68c2c0" stroke-width="1.51"/><path d="M475,-206L661,-181L808,-277Z" fill="#c0e5c3" stroke="#c0e5c3" stroke-width="1.51"/><path d="M803,1595L706,1724L860,1646Z" fill="#4f91b5" stroke="#4f91b5" stroke-width="1.51"/><path d="M741,130L631,292L756,357Z" fill="#a7dbb8" stroke="#a7dbb8" stroke-width="1.51"/><path d="M751,685L564,887L839,770Z" fill="#72c7be" stroke="#72c7be" stroke-width="1.51"/><path d="M655,-22L741,130L796,-37Z" fill="#b4dfb8" stroke="#b4dfb8" stroke-width="1.51"/><path d="M801,1062L686,1206L802,1208Z" fill="#57b5c0" stroke="#57b5c0" stroke-width="1.51"/><path d="M756,357L640,486L822,436Z" fill="#96d4ba" stroke="#96d4ba" stroke-width="1.51"/><path d="M651,150L631,292L741,130Z" fill="#acddb7" stroke="#acddb7" stroke-width="1.51"/><path d="M661,-181L655,-22L796,-37Z" fill="#b9e1bb" stroke="#b9e1bb" stroke-width="1.51"/><path d="M686,1206L672,1291L802,1208Z" fill="#58b2bf" stroke="#58b2bf" stroke-width="1.51"/><path d="M684,1499L706,1724L803,1595Z" fill="#5597b6" stroke="#5597b6" stroke-width="1.51"/><path d="M568,1000L686,1206L801,1062Z" fill="#60bbc0" stroke="#60bbc0" stroke-width="1.51"/><path d="M655,-22L651,150L741,130Z" fill="#b3e0b7" stroke="#b3e0b7" stroke-width="1.51"/><path d="M640,486L559,572L751,685Z" fill="#8ad1ba" stroke="#8ad1ba" stroke-width="1.51"/><path d="M706,1724L592,1909L769,1855Z" fill="#5a89af" stroke="#5a89af" stroke-width="1.51"/><path d="M592,1909L693,2019L769,1855Z" fill="#5b82ac" stroke="#5b82ac" stroke-width="1.51"/><path d="M455,2180L620,2308L693,2019Z" fill="#5e7999" stroke="#5e7999" stroke-width="1.51"/><path d="M522,641L564,887L751,685Z" fill="#80ccbc" stroke="#80ccbc" stroke-width="1.51"/><path d="M631,292L640,486L756,357Z" fill="#9fd8b8" stroke="#9fd8b8" stroke-width="1.51"/><path d="M568,1000L519,1135L686,1206Z" fill="#6cbebf" stroke="#6cbebf" stroke-width="1.51"/><path d="M559,572L522,641L751,685Z" fill="#89d0ba" stroke="#89d0ba" stroke-width="1.51"/><path d="M431,1486L407,1708L684,1499Z" fill="#6fa2b5" stroke="#6fa2b5" stroke-width="1.51"/><path d="M672,1291L476,1301L684,1499Z" fill="#62aebd" stroke="#62aebd" stroke-width="1.51"/><path d="M476,1301L431,1486L684,1499Z" fill="#6dacba" stroke="#6dacba" stroke-width="1.51"/><path d="M684,1499L407,1708L706,1724Z" fill="#6398b3" stroke="#6398b3" stroke-width="1.51"/><path d="M407,1708L523,1869L706,1724Z" fill="#6b92af" stroke="#6b92af" stroke-width="1.51"/><path d="M523,1869L592,1909L706,1724Z" fill="#648bae" stroke="#648bae" stroke-width="1.51"/><path d="M592,1909L455,2180L693,2019Z" fill="#6680a6" stroke="#6680a6" stroke-width="1.51"/><path d="M631,292L463,397L640,486Z" fill="#a7dbb8" stroke="#a7dbb8" stroke-width="1.51"/><path d="M519,1135L672,1291L686,1206Z" fill="#64b7be" stroke="#64b7be" stroke-width="1.51"/><path d="M475,-206L655,-22L661,-181Z" fill="#c4e6bd" stroke="#c4e6bd" stroke-width="1.51"/><path d="M519,1135L476,1301L672,1291Z" fill="#6db8be" stroke="#6db8be" stroke-width="1.51"/><path d="M402,61L651,150L655,-22Z" fill="#bfe5b6" stroke="#bfe5b6" stroke-width="1.51"/><path d="M420,2158L455,2180L592,1909Z" fill="#6e81a1" stroke="#6e81a1" stroke-width="1.51"/><path d="M388,247L631,292L651,150Z" fill="#b6e1b6" stroke="#b6e1b6" stroke-width="1.51"/><path d="M475,-206L388,-73L655,-22Z" fill="#cceaba" stroke="#cceaba" stroke-width="1.51"/><path d="M388,-73L402,61L655,-22Z" fill="#cceab4" stroke="#cceab4" stroke-width="1.51"/><path d="M402,61L388,247L651,150Z" fill="#c2e6b5" stroke="#c2e6b5" stroke-width="1.51"/><path d="M522,641L403,808L564,887Z" fill="#8bd0bb" stroke="#8bd0bb" stroke-width="1.51"/><path d="M463,397L559,572L640,486Z" fill="#a0d9b9" stroke="#a0d9b9" stroke-width="1.51"/><path d="M491,1053L519,1135L568,1000Z" fill="#75c3be" stroke="#75c3be" stroke-width="1.51"/><path d="M523,1869L420,2158L592,1909Z" fill="#6f85a9" stroke="#6f85a9" stroke-width="1.51"/><path d="M388,247L463,397L631,292Z" fill="#b7e2b6" stroke="#b7e2b6" stroke-width="1.51"/><path d="M455,2180L296,2325L620,2308Z" fill="#687a8f" stroke="#687a8f" stroke-width="1.51"/><path d="M302,1978L420,2158L523,1869Z" fill="#7a87a8" stroke="#7a87a8" stroke-width="1.51"/><path d="M463,397L342,567L559,572Z" fill="#a7dbb8" stroke="#a7dbb8" stroke-width="1.51"/><path d="M403,808L491,1053L564,887Z" fill="#82ccbd" stroke="#82ccbd" stroke-width="1.51"/><path d="M564,887L491,1053L568,1000Z" fill="#77c7be" stroke="#77c7be" stroke-width="1.51"/><path d="M342,567L522,641L559,572Z" fill="#9cd8b9" stroke="#9cd8b9" stroke-width="1.51"/><path d="M302,1978L290,2062L420,2158Z" fill="#7f87a1" stroke="#7f87a1" stroke-width="1.51"/><path d="M340,1288L476,1301L519,1135Z" fill="#7bbcbd" stroke="#7bbcbd" stroke-width="1.51"/><path d="M342,567L403,808L522,641Z" fill="#9ad6b9" stroke="#9ad6b9" stroke-width="1.51"/><path d="M407,1708L302,1978L523,1869Z" fill="#7b91ac" stroke="#7b91ac" stroke-width="1.51"/><path d="M491,1053L340,1288L519,1135Z" fill="#7dc1bd" stroke="#7dc1bd" stroke-width="1.51"/><path d="M202,1073L216,1223L340,1288Z" fill="#8fc5bc" stroke="#8fc5bc" stroke-width="1.51"/><path d="M308,1537L407,1708L431,1486Z" fill="#7ea6b4" stroke="#7ea6b4" stroke-width="1.51"/><path d="M340,1288L431,1486L476,1301Z" fill="#7cb6bc" stroke="#7cb6bc" stroke-width="1.51"/><path d="M403,808L227,862L491,1053Z" fill="#90d0bc" stroke="#90d0bc" stroke-width="1.51"/><path d="M227,862L202,1073L491,1053Z" fill="#91d0bd" stroke="#91d0bd" stroke-width="1.51"/><path d="M202,1073L340,1288L491,1053Z" fill="#8ac6bc" stroke="#8ac6bc" stroke-width="1.51"/><path d="M301,1695L302,1978L407,1708Z" fill="#8398ad" stroke="#8398ad" stroke-width="1.51"/><path d="M420,2158L296,2325L455,2180Z" fill="#717f93" stroke="#717f93" stroke-width="1.51"/><path d="M288,408L342,567L463,397Z" fill="#b6e2b6" stroke="#b6e2b6" stroke-width="1.51"/><path d="M388,247L288,408L463,397Z" fill="#bfe5b5" stroke="#bfe5b5" stroke-width="1.51"/><path d="M229,-146L388,-73L475,-206Z" fill="#daf1ba" stroke="#daf1ba" stroke-width="1.51"/><path d="M213,-257L229,-146L475,-206Z" fill="#e0f3be" stroke="#e0f3be" stroke-width="1.51"/><path d="M308,1537L301,1695L407,1708Z" fill="#82a2b1" stroke="#82a2b1" stroke-width="1.51"/><path d="M281,207L388,247L402,61Z" fill="#cdebb4" stroke="#cdebb4" stroke-width="1.51"/><path d="M342,567L227,862L403,808Z" fill="#a0d8b9" stroke="#a0d8b9" stroke-width="1.51"/><path d="M340,1288L308,1537L431,1486Z" fill="#82b2b8" stroke="#82b2b8" stroke-width="1.51"/><path d="M388,-73L241,46L402,61Z" fill="#d7efb3" stroke="#d7efb3" stroke-width="1.51"/><path d="M290,2062L296,2325L420,2158Z" fill="#798296" stroke="#798296" stroke-width="1.51"/><path d="M301,1695L131,1785L302,1978Z" fill="#8998ac" stroke="#8998ac" stroke-width="1.51"/><path d="M99,764L227,862L342,567Z" fill="#a8dbb8" stroke="#a8dbb8" stroke-width="1.51"/><path d="M281,207L288,408L388,247Z" fill="#caeab4" stroke="#caeab4" stroke-width="1.51"/><path d="M241,46L281,207L402,61Z" fill="#d5eeb3" stroke="#d5eeb3" stroke-width="1.51"/><path d="M171,1305L308,1537L340,1288Z" fill="#8ab9ba" stroke="#8ab9ba" stroke-width="1.51"/><path d="M86,655L99,764L342,567Z" fill="#aedeb7" stroke="#aedeb7" stroke-width="1.51"/><path d="M229,-146L241,46L388,-73Z" fill="#def2b5" stroke="#def2b5" stroke-width="1.51"/><path d="M290,2062L143,2084L296,2325Z" fill="#808599" stroke="#808599" stroke-width="1.51"/><path d="M171,1305L89,1518L308,1537Z" fill="#8fb5b7" stroke="#8fb5b7" stroke-width="1.51"/><path d="M125,527L86,655L342,567Z" fill="#b6e1b6" stroke="#b6e1b6" stroke-width="1.51"/><path d="M288,408L125,527L342,567Z" fill="#bae3b6" stroke="#bae3b6" stroke-width="1.51"/><path d="M216,1223L171,1305L340,1288Z" fill="#8ec1bb" stroke="#8ec1bb" stroke-width="1.51"/><path d="M149,1049L202,1073L227,862Z" fill="#99d2bc" stroke="#99d2bc" stroke-width="1.51"/><path d="M229,-146L144,-55L241,46Z" fill="#e2f4b5" stroke="#e2f4b5" stroke-width="1.51"/><path d="M281,207L78,211L288,408Z" fill="#d1ecb4" stroke="#d1ecb4" stroke-width="1.51"/><path d="M143,2084L68,2302L296,2325Z" fill="#7f8391" stroke="#7f8391" stroke-width="1.51"/><path d="M89,1518L131,1785L301,1695Z" fill="#8da4b0" stroke="#8da4b0" stroke-width="1.51"/><path d="M131,1785L50,1857L302,1978Z" fill="#8e96aa" stroke="#8e96aa" stroke-width="1.51"/><path d="M89,1518L301,1695L308,1537Z" fill="#8baab3" stroke="#8baab3" stroke-width="1.51"/><path d="M241,46L126,86L281,207Z" fill="#d9f0b3" stroke="#d9f0b3" stroke-width="1.51"/><path d="M50,1857L143,2084L302,1978Z" fill="#8d8fa7" stroke="#8d8fa7" stroke-width="1.51"/><path d="M143,2084L290,2062L302,1978Z" fill="#878aa4" stroke="#878aa4" stroke-width="1.51"/><path d="M78,211L125,527L288,408Z" fill="#cbeab4" stroke="#cbeab4" stroke-width="1.51"/><path d="M126,86L78,211L281,207Z" fill="#daf0b3" stroke="#daf0b3" stroke-width="1.51"/><path d="M202,1073L79,1241L216,1223Z" fill="#96c8bc" stroke="#96c8bc" stroke-width="1.51"/><path d="M144,-55L126,86L241,46Z" fill="#e1f3b2" stroke="#e1f3b2" stroke-width="1.51"/><path d="M78,211L-67,466L125,527Z" fill="#d0ecb4" stroke="#d0ecb4" stroke-width="1.51"/><path d="M149,1049L79,1241L202,1073Z" fill="#99ccbc" stroke="#99ccbc" stroke-width="1.51"/><path d="M99,764L149,1049L227,862Z" fill="#a1d6bb" stroke="#a1d6bb" stroke-width="1.51"/><path d="M213,-257L53,-255L229,-146Z" fill="#e9f6be" stroke="#e9f6be" stroke-width="1.51"/><path d="M53,-255L144,-55L229,-146Z" fill="#e9f6ba" stroke="#e9f6ba" stroke-width="1.51"/><path d="M79,1241L171,1305L216,1223Z" fill="#94c4bb" stroke="#94c4bb" stroke-width="1.51"/><path d="M99,764L-111,940L149,1049Z" fill="#a7d8bb" stroke="#a7d8bb" stroke-width="1.51"/><path d="M89,1518L-42,1756L131,1785Z" fill="#94a5af" stroke="#94a5af" stroke-width="1.51"/><path d="M50,1857L-34,2025L143,2084Z" fill="#9390a7" stroke="#9390a7" stroke-width="1.51"/><path d="M-15,1472L89,1518L171,1305Z" fill="#96b9b7" stroke="#96b9b7" stroke-width="1.51"/><path d="M-108,338L-67,466L78,211Z" fill="#d9f0b4" stroke="#d9f0b4" stroke-width="1.51"/><path d="M-51,1127L79,1241L149,1049Z" fill="#9dcdbb" stroke="#9dcdbb" stroke-width="1.51"/><path d="M79,1241L-15,1472L171,1305Z" fill="#97c1bb" stroke="#97c1bb" stroke-width="1.51"/><path d="M-34,2025L68,2302L143,2084Z" fill="#8b899a" stroke="#8b899a" stroke-width="1.51"/><path d="M53,-255L-112,-186L144,-55Z" fill="#eff9ba" stroke="#eff9ba" stroke-width="1.51"/><path d="M-47,46L126,86L144,-55Z" fill="#e6f5b2" stroke="#e6f5b2" stroke-width="1.51"/><path d="M-111,940L-51,1127L149,1049Z" fill="#a4d4bc" stroke="#a4d4bc" stroke-width="1.51"/><path d="M-112,-186L-47,46L144,-55Z" fill="#eef9b4" stroke="#eef9b4" stroke-width="1.51"/><path d="M-34,2025L-148,2219L68,2302Z" fill="#8d8997" stroke="#8d8997" stroke-width="1.51"/><path d="M-3,667L86,655L125,527Z" fill="#b9e2b6" stroke="#b9e2b6" stroke-width="1.51"/><path d="M-47,46L78,211L126,86Z" fill="#e3f3b2" stroke="#e3f3b2" stroke-width="1.51"/><path d="M-42,1756L50,1857L131,1785Z" fill="#959dac" stroke="#959dac" stroke-width="1.51"/><path d="M-15,1472L-42,1756L89,1518Z" fill="#98aeb3" stroke="#98aeb3" stroke-width="1.51"/><path d="M-67,466L-3,667L125,527Z" fill="#c3e6b5" stroke="#c3e6b5" stroke-width="1.51"/><path d="M-112,-186L-158,-72L-47,46Z" fill="#f1faba" stroke="#f1faba" stroke-width="1.51"/><path d="M-131,1410L-15,1472L79,1241Z" fill="#9dc0ba" stroke="#9dc0ba" stroke-width="1.51"/><path d="M-3,667L-134,744L99,764Z" fill="#b6e0b8" stroke="#b6e0b8" stroke-width="1.51"/><path d="M-134,744L-111,940L99,764Z" fill="#b2ddbb" stroke="#b2ddbb" stroke-width="1.51"/><path d="M86,655L-3,667L99,764Z" fill="#b3e0b7" stroke="#b3e0b7" stroke-width="1.51"/><path d="M-55,1859L-34,2025L50,1857Z" fill="#9797a9" stroke="#9797a9" stroke-width="1.51"/><path d="M-273,-335L-112,-186L53,-255Z" fill="#f6fcc6" stroke="#f6fcc6" stroke-width="1.51"/><path d="M-148,2219L-260,2305L68,2302Z" fill="#8a8593" stroke="#8a8593" stroke-width="1.51"/><path d="M-47,46L-108,338L78,211Z" fill="#e2f4b3" stroke="#e2f4b3" stroke-width="1.51"/><path d="M-51,1127L-131,1410L79,1241Z" fill="#9fc7bc" stroke="#9fc7bc" stroke-width="1.51"/><path d="M-225,114L-108,338L-47,46Z" fill="#e6f5b9" stroke="#e6f5b9" stroke-width="1.51"/><path d="M-195,1492L-42,1756L-15,1472Z" fill="#9bb0b6" stroke="#9bb0b6" stroke-width="1.51"/><path d="M-42,1756L-55,1859L50,1857Z" fill="#989dab" stroke="#989dab" stroke-width="1.51"/><path d="M-296,601L-134,744L-67,466Z" fill="#c3e7bf" stroke="#c3e7bf" stroke-width="1.51"/><path d="M-200,1387L-131,1410L-51,1127Z" fill="#a0c5c1" stroke="#a0c5c1" stroke-width="1.51"/><path d="M-55,1859L-206,1922L-34,2025Z" fill="#9996ad" stroke="#9996ad" stroke-width="1.51"/><path d="M-67,466L-134,744L-3,667Z" fill="#bfe4b9" stroke="#bfe4b9" stroke-width="1.51"/><path d="M-324,1226L-200,1387L-51,1127Z" fill="#a3cac5" stroke="#a3cac5" stroke-width="1.51"/><path d="M-195,1492L-310,1731L-42,1756Z" fill="#9caab9" stroke="#9caab9" stroke-width="1.51"/><path d="M-245,2076L-148,2219L-34,2025Z" fill="#948da4" stroke="#948da4" stroke-width="1.51"/><path d="M-131,1410L-195,1492L-15,1472Z" fill="#9dbabc" stroke="#9dbabc" stroke-width="1.51"/><path d="M-206,1922L-245,2076L-34,2025Z" fill="#9a92ae" stroke="#9a92ae" stroke-width="1.51"/><path d="M-134,744L-202,924L-111,940Z" fill="#b1ddc2" stroke="#b1ddc2" stroke-width="1.51"/><path d="M-111,940L-202,924L-51,1127Z" fill="#a8d8c2" stroke="#a8d8c2" stroke-width="1.51"/><path d="M-206,1922L-55,1859L-42,1756Z" fill="#9a9cb0" stroke="#9a9cb0" stroke-width="1.51"/><path d="M-310,1731L-206,1922L-42,1756Z" fill="#9ba0b5" stroke="#9ba0b5" stroke-width="1.51"/><path d="M-158,-72L-225,114L-47,46Z" fill="#eef9b9" stroke="#eef9b9" stroke-width="1.51"/><path d="M-202,924L-324,1226L-51,1127Z" fill="#a7d3c5" stroke="#a7d3c5" stroke-width="1.51"/><path d="M-225,114L-280,340L-108,338Z" fill="#e3f4bd" stroke="#e3f4bd" stroke-width="1.51"/><path d="M-108,338L-254,385L-67,466Z" fill="#d7efbb" stroke="#d7efbb" stroke-width="1.51"/><path d="M-254,385L-296,601L-67,466Z" fill="#d0ecbf" stroke="#d0ecbf" stroke-width="1.51"/><path d="M-296,601L-235,769L-134,744Z" fill="#bce3c3" stroke="#bce3c3" stroke-width="1.51"/><path d="M-235,769L-202,924L-134,744Z" fill="#b5dfc3" stroke="#b5dfc3" stroke-width="1.51"/><path d="M-259,-104L-158,-72L-112,-186Z" fill="#f5fbc1" stroke="#f5fbc1" stroke-width="1.51"/><path d="M-273,-335L-259,-104L-112,-186Z" fill="#f8fcc9" stroke="#f8fcc9" stroke-width="1.51"/><path d="M-280,340L-254,385L-108,338Z" fill="#ddf2bf" stroke="#ddf2bf" stroke-width="1.51"/><path d="M-259,-104L-225,114L-158,-72Z" fill="#f3fabe" stroke="#f3fabe" stroke-width="1.51"/><path d="M-200,1387L-195,1492L-131,1410Z" fill="#9fbdc0" stroke="#9fbdc0" stroke-width="1.51"/><path d="M-245,2076L-260,2305L-148,2219Z" fill="#908a9f" stroke="#908a9f" stroke-width="1.51"/><path d="M-200,1387L-324,1226L-195,1492Z" fill="#a1c3c6" stroke="#a1c3c6" stroke-width="1.51"/><path d="M-324,1226L-310,1731L-195,1492Z" fill="#a0b9c4" stroke="#a0b9c4" stroke-width="1.51"/><path d="M-235,769L-324,1226L-202,924Z" fill="#addac9" stroke="#addac9" stroke-width="1.51"/><path d="M-310,1731L-245,2076L-206,1922Z" fill="#9c99b6" stroke="#9c99b6" stroke-width="1.51"/><path d="M-296,601L-324,1226L-235,769Z" fill="#b4dec9" stroke="#b4dec9" stroke-width="1.51"/><path d="M-259,-104L-280,340L-225,114Z" fill="#edf8c0" stroke="#edf8c0" stroke-width="1.51"/><path d="M-280,340L-296,601L-254,385Z" fill="#d6eec3" stroke="#d6eec3" stroke-width="1.51"/><path d="M-310,1731L-260,2305L-245,2076Z" fill="#9a91b2" stroke="#9a91b2" stroke-width="1.51"/><path d="M-273,-335L-280,340L-259,-104Z" fill="#f5fbc2" stroke="#f5fbc2" stroke-width="1.51"/><path d="M-296,601L-280,340L-273,-335Z" fill="#e9f6c2" stroke="#e9f6c2" stroke-width="1.51"/></svg>