<svg xmlns="http://www.w3.org/2000/svg" xmlns:xlink="http://www.w3.org/1999/xlink" version="1.1" x="0px" y="0px" viewBox="0 0 64 80" style="enable-background:new 0 0 64 64;" xml:space="preserve"><g><path d="M59,10h-7.101C51.434,7.721,49.414,6,47,6H23c-2.757,0-5,2.243-5,5v11h-2c-0.552,0-1,0.447-1,1v4   c0,0.368,0.202,0.706,0.526,0.881L28,34.598V43c0,0.404,0.244,0.77,0.617,0.924C28.741,43.976,28.871,44,29,44   c0.26,0,0.516-0.102,0.707-0.293l4-4C33.895,39.52,34,39.266,34,39v-4.402l12.474-6.717C46.798,27.706,47,27.368,47,27v-4   c0-0.553-0.448-1-1-1h-2v-4h11c2.757,0,5-2.243,5-5v-2C60,10.447,59.552,10,59,10z M45,26.402l-12.474,6.717   C32.202,33.294,32,33.632,32,34v4.586l-2,2V34c0-0.368-0.202-0.706-0.526-0.881L17,26.402V24h2h24h2V26.402z M20,22V11   c0-1.654,1.346-3,3-3h20.002c-0.029,0.038-0.05,0.083-0.078,0.122c-0.059,0.083-0.11,0.17-0.163,0.257   c-0.105,0.168-0.2,0.341-0.284,0.522c-0.045,0.098-0.089,0.195-0.128,0.296c-0.075,0.193-0.134,0.392-0.185,0.595   c-0.023,0.094-0.053,0.185-0.071,0.281C42.037,10.374,42,10.682,42,11v6v5H20z M44,16v-5c0-1.654,1.346-3,3-3s3,1.346,3,3v2   c0,0.318,0.037,0.626,0.094,0.927c0.018,0.096,0.047,0.187,0.071,0.281c0.051,0.203,0.11,0.402,0.185,0.595   c0.039,0.101,0.082,0.198,0.128,0.296c0.084,0.181,0.179,0.354,0.284,0.522c0.054,0.087,0.105,0.174,0.163,0.257   c0.028,0.039,0.049,0.084,0.078,0.122H44z M58,13c0,1.654-1.346,3-3,3s-3-1.346-3-3v-1h6V13z"/><path d="M56,48c-1.365,0-2.57,0.689-3.292,1.736l-4.745-2.372C47.974,47.242,48,47.124,48,47c0-2.206-1.794-4-4-4s-4,1.794-4,4   c0,0.468,0.096,0.91,0.244,1.328l-5.09,4.241C34.422,51.622,33.287,51,32,51c-1.031,0-1.963,0.403-2.673,1.045l-5.364-2.682   C23.974,49.242,24,49.124,24,49c0-2.206-1.794-4-4-4s-4,1.794-4,4c0,0.149,0.028,0.291,0.044,0.435l-5.391,3.594   C9.946,52.397,9.022,52,8,52c-2.206,0-4,1.794-4,4s1.794,4,4,4s4-1.794,4-4c0-0.46-0.094-0.895-0.237-1.307l5.016-3.344   C17.507,52.345,18.675,53,20,53c1.365,0,2.57-0.689,3.292-1.736l4.934,2.467C28.09,54.132,28,54.554,28,55c0,2.206,1.794,4,4,4   s4-1.794,4-4c0-0.168-0.029-0.328-0.05-0.49l5.422-4.518C42.077,50.611,42.99,51,44,51c1.365,0,2.57-0.689,3.292-1.736l4.745,2.372   C52.026,51.758,52,51.876,52,52c0,2.206,1.794,4,4,4s4-1.794,4-4S58.206,48,56,48z M8,58c-1.103,0-2-0.897-2-2s0.897-2,2-2   s2,0.897,2,2S9.103,58,8,58z M20,51c-1.103,0-2-0.897-2-2s0.897-2,2-2s2,0.897,2,2S21.103,51,20,51z M32,57c-1.103,0-2-0.897-2-2   s0.897-2,2-2s2,0.897,2,2S33.103,57,32,57z M44,49c-1.103,0-2-0.897-2-2s0.897-2,2-2s2,0.897,2,2S45.103,49,44,49z M56,54   c-1.103,0-2-0.897-2-2s0.897-2,2-2s2,0.897,2,2S57.103,54,56,54z"/><rect x="23" y="18" width="4" height="2"/><rect x="29" y="18" width="4" height="2"/><rect x="35" y="18" width="4" height="2"/><rect x="23" y="14" width="4" height="2"/><rect x="29" y="14" width="4" height="2"/><rect x="35" y="14" width="4" height="2"/><rect x="23" y="10" width="4" height="2"/><rect x="29" y="10" width="4" height="2"/><rect x="35" y="10" width="4" height="2"/><rect x="38" y="36" width="2" height="2"/><rect x="42" y="36" width="2" height="2"/><rect x="46" y="36" width="2" height="2"/><rect x="14" y="36" width="2" height="2"/><rect x="18" y="36" width="2" height="2"/><rect x="22" y="36" width="2" height="2"/></g><text x="0" y="79" fill="#000000" font-size="5px" font-weight="bold" font-family="'Helvetica Neue', Helvetica, Arial-Unicode, Arial, Sans-serif">Created by Becris</text><text x="0" y="84" fill="#000000" font-size="5px" font-weight="bold" font-family="'Helvetica Neue', Helvetica, Arial-Unicode, Arial, Sans-serif">from the Noun Project</text></svg>
