<svg xmlns="http://www.w3.org/2000/svg" xmlns:xlink="http://www.w3.org/1999/xlink" version="1.1" x="0px" y="0px" viewBox="0 0 100 125" enable-background="new 0 0 100 100" xml:space="preserve"><path d="M66.113,53.108h-7.384l8.564-6.6l-5.214-6.834H37.915l-5.212,6.834l8.566,6.6h-7.385l-13.42,17.586L50,93.465l29.535-22.771  L66.113,53.108z M72.372,65.354L51.227,81.655v-6.994l17.786-13.712L72.372,65.354z M68.268,59.974L51.227,73.11v-6.216  l14.053-10.837L68.268,59.974z M63.863,46.053l-12.637,9.739V50.35l10.02-7.726L63.863,46.053z M57.872,42.128L50,48.195  l-7.875-6.067H57.872z M36.135,46.053l2.611-3.427l10.027,7.726v5.439L36.135,46.053z M48.773,89.422L23.896,70.244l2.986-3.915  l21.891,16.877V89.422z M48.773,81.655L27.628,65.354l3.356-4.399l17.789,13.707V81.655z M48.773,73.11L31.73,59.976l2.986-3.915  l14.057,10.836V73.11z M50.002,64.74l-11.907-9.179h6.36L50,59.835l5.545-4.273h6.362L50.002,64.74z M51.227,89.422v-6.216  l21.889-16.877l2.988,3.915L51.227,89.422z M44.338,24.819h1.314l1.381,4.038h5.936l1.381-4.038h1.317  c1.814,0,3.281-1.464,3.305-3.271h18.848v-2.454H58.975c-0.024-1.809-1.493-3.273-3.308-3.273h-4.104  c0.47-1.03,1.498-1.754,2.7-1.754h8.152c2.078,0,3.768-1.689,3.768-3.767c0-2.075-1.689-3.765-3.768-3.765H39.246v2.454h23.169  c0.724,0,1.313,0.587,1.313,1.311s-0.59,1.313-1.313,1.313h-8.152c-2.573,0-4.723,1.802-5.284,4.208h-4.641  c-1.814,0-3.283,1.464-3.308,3.273H22.184v2.454h18.85C41.057,23.355,42.523,24.819,44.338,24.819z M51.215,26.403h-2.428  l-1.014-2.964h4.455L51.215,26.403z M43.477,19.135c0-0.467,0.394-0.86,0.861-0.86h11.329c0.468,0,0.86,0.393,0.86,0.86v2.37  c0,0.467-0.393,0.86-0.86,0.86H44.338c-0.468,0-0.861-0.393-0.861-0.86V19.135z M50.616,30.07h-1.228V34h1.228V30.07z   M49.389,36.856h1.228v-1.783h-1.228V36.856z M57.803,34.436l-1.261-1.263l-0.867,0.868l1.26,1.263L57.803,34.436z M52.138,30.503  l2.777,2.78l0.867-0.868l-2.777-2.78L52.138,30.503z M42.199,34.436l0.868,0.868l1.261-1.263l-0.867-0.868L42.199,34.436z   M47.865,30.503l-0.867-0.868l-2.777,2.78l0.867,0.868L47.865,30.503z"/><text x="0" y="115" fill="#000000" font-size="5px" font-weight="bold" font-family="'Helvetica Neue', Helvetica, Arial-Unicode, Arial, Sans-serif">Created by Sergey Demushkin</text><text x="0" y="120" fill="#000000" font-size="5px" font-weight="bold" font-family="'Helvetica Neue', Helvetica, Arial-Unicode, Arial, Sans-serif">from the Noun Project</text></svg>
