<svg xmlns="http://www.w3.org/2000/svg" xmlns:xlink="http://www.w3.org/1999/xlink" version="1.1" x="0px" y="0px" viewBox="0 0 32 40" enable-background="new 0 0 32 32" xml:space="preserve"><g><g><path d="M26.606,18.187c0.02,0.061-0.01,0.12-0.08,0.15h-0.04l-9.71-1.58l-0.051-0.01l-0.049,0.04    c-0.101,0.09-0.221,0.16-0.351,0.21c-0.489,0.16-1.04-0.05-1.3-0.48l-0.03-0.05l-4.51-0.74c-0.021,0-0.05-0.02-0.069-0.05    c-0.021-0.02-0.021-0.05-0.021-0.08l0.35-1.6c0.011-0.03,0.021-0.061,0.04-0.07c0.03-0.01,0.051-0.02,0.1-0.01l4.36,1.17    l0.05,0.02l0.051-0.04c0.09-0.06,0.18-0.109,0.27-0.14c0.52-0.18,1.109,0.08,1.34,0.58l0.02,0.05l9.521,2.561    C26.546,18.117,26.587,18.146,26.606,18.187z"/></g><path d="M16,1C7.729,1,1,7.729,1,16s6.729,15,15,15s15-6.729,15-15S24.271,1,16,1z M25.656,25.021l-0.629,0.63   C22.66,27.867,19.49,29.234,16,29.234c-3.489,0-6.658-1.365-9.025-3.581l-0.629-0.63c-0.978-1.044-1.788-2.245-2.388-3.563   l2.648-1.099c0.225-0.093,0.332-0.352,0.238-0.576c-0.094-0.226-0.353-0.334-0.576-0.238l-2.646,1.099   c-0.495-1.318-0.787-2.73-0.835-4.206l2.866,0.004h0.001c0.243,0,0.44-0.198,0.44-0.439c0-0.064-0.014-0.123-0.037-0.176   c-0.065-0.163-0.222-0.276-0.406-0.276H5.65l-2.863,0.001c0.05-1.476,0.341-2.889,0.839-4.205l2.645,1.093   c0.056,0.023,0.112,0.033,0.168,0.033c0.174,0,0.338-0.103,0.408-0.271c0.094-0.227-0.014-0.483-0.239-0.576L3.962,10.53   c0.602-1.316,1.411-2.516,2.389-3.56l2.021,2.021c0.086,0.086,0.199,0.131,0.312,0.131c0.112,0,0.225-0.045,0.311-0.131   c0.131-0.13,0.162-0.32,0.096-0.481C9.069,8.458,9.038,8.406,8.993,8.364L6.975,6.347C8.02,5.369,9.219,4.56,10.536,3.959   l1.095,2.645c0.07,0.17,0.234,0.272,0.407,0.272c0.057,0,0.113-0.011,0.17-0.035c0.225-0.093,0.331-0.352,0.238-0.576l-1.094-2.641   c1.316-0.496,2.729-0.787,4.206-0.837V4.6l-0.002,1.046c-0.001,0.245,0.196,0.441,0.44,0.443l0,0c0.001,0,0.002,0,0.002,0   s0,0,0.001,0c0.244,0,0.441-0.198,0.441-0.441V4.602l0.003-1.814c1.477,0.051,2.891,0.343,4.206,0.839l-1.099,2.639   c-0.094,0.225,0.013,0.483,0.238,0.576c0.055,0.022,0.112,0.035,0.17,0.035c0.172,0,0.336-0.103,0.406-0.272l1.1-2.643   c1.316,0.601,2.515,1.41,3.559,2.386l-2.017,2.011c-0.087,0.086-0.13,0.197-0.13,0.311c-0.002,0.117,0.039,0.233,0.128,0.322   c0.086,0.087,0.198,0.131,0.312,0.131s0.226-0.044,0.312-0.131l2.021-2.018c0.979,1.046,1.788,2.245,2.389,3.563l-2.648,1.093   c-0.225,0.094-0.332,0.352-0.239,0.575c0.071,0.172,0.235,0.274,0.408,0.274c0.057,0,0.113-0.011,0.169-0.034l2.646-1.092   c0.495,1.313,0.786,2.725,0.836,4.199l-2.855-0.004l0,0c-0.123,0-0.234,0.051-0.314,0.134c-0.084,0.08-0.136,0.192-0.136,0.316   c0,0.244,0.197,0.441,0.44,0.441l2.865,0.002c-0.048,1.476-0.34,2.89-0.836,4.206l-2.648-1.097   c-0.224-0.096-0.482,0.013-0.576,0.237c-0.094,0.226,0.014,0.483,0.238,0.577l2.65,1.099C27.44,22.78,26.632,23.979,25.656,25.021z   "/><path fill="none" stroke="#000000" stroke-miterlimit="10" d="M19.398,24.229c0,0.913-0.74,1.654-1.653,1.654h-3.49   c-0.912,0-1.653-0.741-1.653-1.654l0,0c0-0.913,0.741-1.654,1.653-1.654h3.49C18.658,22.575,19.398,23.316,19.398,24.229   L19.398,24.229z"/></g><text x="0" y="47" fill="#000000" font-size="5px" font-weight="bold" font-family="'Helvetica Neue', Helvetica, Arial-Unicode, Arial, Sans-serif">Created by Lorenzo Alfano</text><text x="0" y="52" fill="#000000" font-size="5px" font-weight="bold" font-family="'Helvetica Neue', Helvetica, Arial-Unicode, Arial, Sans-serif">from the Noun Project</text></svg>
